<svg xmlns="http://www.w3.org/2000/svg" xmlns:xlink="http://www.w3.org/1999/xlink" version="1.1" id="Your_Icon" x="0px" y="0px" viewBox="0 0 100 100" enable-background="new 0 0 100 100" xml:space="preserve" height="100px" width="100px">
<g>
	<rect x="11.797" y="80.477" width="76.405" height="3.465"/>
	<path d="M87.674,78.336V50.03H12.326v28.305H87.674z M73.13,56.632c0-1.439,1.166-2.605,2.605-2.605   c1.439,0,2.605,1.166,2.605,2.605v15.007c0,1.439-1.166,2.605-2.605,2.605c-1.439,0-2.605-1.166-2.605-2.605V56.632z    M59.672,56.632c0-1.439,1.166-2.605,2.605-2.605c1.439,0,2.605,1.166,2.605,2.605v15.007c0,1.439-1.166,2.605-2.605,2.605   c-1.439,0-2.605-1.166-2.605-2.605V56.632z M46.215,56.632c0-1.439,1.166-2.605,2.605-2.605c1.439,0,2.606,1.166,2.606,2.605   v15.007c0,1.439-1.166,2.605-2.606,2.605c-1.439,0-2.605-1.166-2.605-2.605V56.632z M32.757,56.632   c0-1.439,1.166-2.605,2.605-2.605s2.605,1.166,2.605,2.605v15.007c0,1.439-1.166,2.605-2.605,2.605s-2.605-1.166-2.605-2.605   V56.632z M19.299,56.632c0-1.439,1.166-2.605,2.605-2.605c1.439,0,2.605,1.166,2.605,2.605v15.007c0,1.439-1.166,2.605-2.605,2.605   c-1.439,0-2.605-1.166-2.605-2.605V56.632z"/>
	<path d="M51.262,36.172v3.043c1.157-0.226,1.703-0.886,1.703-1.613C52.965,36.852,52.259,36.489,51.262,36.172z"/>
	<path d="M47.558,30.854c0,0.659,0.635,1.003,1.567,1.298V29.4C48.125,29.538,47.558,30.084,47.558,30.854z"/>
	<path d="M50,16.058L5,47.35h90L50,16.058z M51.262,42.1v2.046h-2.137V42.1c-2.385-0.203-4.136-1.112-5.384-2.363l1.773-2.523   c0.837,0.888,2.089,1.683,3.611,1.957V35.65c-2.339-0.568-4.885-1.457-4.885-4.546c0-2.295,1.819-4.248,4.885-4.566v-2.113h2.137   v2.157c1.839,0.203,3.406,0.886,4.635,2.022l-1.796,2.406c-0.818-0.749-1.817-1.224-2.838-1.474v3.136   c2.363,0.589,4.997,1.498,4.997,4.611C56.259,39.805,54.602,41.76,51.262,42.1z"/>
</g>
</svg>