<svg xmlns="http://www.w3.org/2000/svg" xmlns:xlink="http://www.w3.org/1999/xlink" version="1.1" id="Your_Icon" x="0px" y="0px" width="100px" height="100px" viewBox="0 0 100 100" enable-background="new 0 0 100 100" xml:space="preserve">
<path d="M64.79,33.665C64.909,34.436,64.368,35,63.589,35H36.411c-0.78,0-1.32-0.564-1.202-1.335l2.729-17.499  C38.056,15.396,38.791,15,39.57,15h20.86c0.779,0,1.514,0.396,1.633,1.166L64.79,33.665z"/>
<path d="M49.547,56.467C49.665,57.236,49.125,58,48.345,58H21.167c-0.78,0-1.32-0.764-1.202-1.533l2.729-17.899  C22.812,37.797,23.546,37,24.326,37h20.859c0.78,0,1.515,0.797,1.633,1.567L49.547,56.467z"/>
<path d="M80.034,56.467C80.153,57.236,79.612,58,78.833,58H51.655c-0.78,0-1.32-0.764-1.202-1.533l2.728-17.899  C53.3,37.797,54.034,37,54.813,37h20.861c0.779,0,1.514,0.797,1.633,1.567L80.034,56.467z"/>
<path d="M34.303,78.77c0.118,0.77-0.422,1.23-1.202,1.23H5.923c-0.78,0-1.32-0.461-1.202-1.23l2.729-17.552  C7.567,60.448,8.302,60,9.082,60h20.859c0.78,0,1.515,0.448,1.633,1.218L34.303,78.77z"/>
<path d="M64.79,78.77c0.119,0.77-0.422,1.23-1.201,1.23H36.411c-0.78,0-1.32-0.461-1.202-1.23l2.729-17.552  C38.056,60.448,38.791,60,39.57,60h20.86c0.779,0,1.514,0.448,1.633,1.218L64.79,78.77z"/>
<path d="M95.278,78.77c0.119,0.77-0.422,1.23-1.201,1.23H66.899c-0.779,0-1.32-0.461-1.201-1.23l2.727-17.552  C68.544,60.448,69.278,60,70.058,60h20.861c0.779,0,1.514,0.448,1.633,1.218L95.278,78.77z"/>
</svg>