<?xml version="1.0" encoding="utf-8"?>
<!-- Generator: Adobe Illustrator 15.1.0, SVG Export Plug-In . SVG Version: 6.00 Build 0)  -->
<!DOCTYPE svg PUBLIC "-//W3C//DTD SVG 1.1//EN" "http://www.w3.org/Graphics/SVG/1.1/DTD/svg11.dtd">
<svg version="1.1" id="Layer_1" xmlns="http://www.w3.org/2000/svg" xmlns:xlink="http://www.w3.org/1999/xlink" x="0px" y="0px"
	 width="91.248px" height="100px" viewBox="6.809 4.625 91.248 100" enable-background="new 6.809 4.625 91.248 100"
	 xml:space="preserve">
<path fill="#231F20" d="M98.057,29.341c0.029-3.499-7.07-3.612-8.385-6.855c-1.31-3.245,3.807-8.038,1.356-10.532
	c-2.455-2.497-7.251,2.627-10.472,1.258c-3.224-1.368-3.302-8.353-6.797-8.583c-3.094-0.206-4.251,5.652-7.116,6.841
	c-2.929,1.219-8.075-2.107-10.271,0.187c-2.188,2.286,1.371,6.79,0.316,9.331c-1.085,2.6-7.862,4.583-7.644,7.936
	c0.233,3.492,7.222,3.547,8.531,6.79c1.31,3.245-3.954,8.105-1.504,10.601c2.451,2.492,7.325-2.132,10.548-0.766
	c3.216,1.369,3.221,8.058,6.719,8.09c3.498,0.031,4.769-6.246,8.012-7.556c3.243-1.312,6.883,2.978,9.375,0.525
	c2.497-2.453-1.859-7.778-0.495-11C91.6,32.383,98.026,32.838,98.057,29.341z M73.549,40.537c-0.394,0-0.783-0.02-1.167-0.059
	C66.629,39.894,62.14,35.036,62.14,29.13c0,0,0-0.001,0-0.001c0,0,0,0,0-0.001c0-6.302,5.107-11.409,11.409-11.409
	s11.408,5.107,11.408,11.409C84.957,35.428,79.851,40.537,73.549,40.537z"/>
<path fill="#231F20" d="M48.594,47.448c-0.147-3.498,5.117-5.48,3.645-8.654c-1.472-3.173-7.954-0.857-10.528-3.226
	c-2.575-2.37,0.01-8.269-3.276-9.472c-3.286-1.203-5.779,5.45-9.273,5.599c-3.494,0.146-6.292-6.287-9.465-4.815
	c-3.174,1.472,0.038,7.711-2.33,10.288C14.997,39.743,8.391,37.477,7,40.685c-1.236,2.846,3.893,5.904,4.053,9.002
	c0.163,3.167-4.695,6.9-3.273,9.736c1.414,2.828,6.855,0.99,8.895,2.835c2.09,1.889,1.675,8.944,4.911,9.861
	c3.367,0.957,5.762-5.607,9.259-5.755c3.497-0.147,6.308,6.446,9.479,4.97c3.175-1.472,0.455-7.611,2.821-10.189
	c2.37-2.57,8.672-0.331,9.876-3.61C54.227,54.248,48.739,50.941,48.594,47.448z M29.998,60.488c-6.299,0-11.406-5.107-11.406-11.407
	s5.107-11.406,11.406-11.406c0.394,0,0.783,0.02,1.166,0.059c5.752,0.584,10.243,5.441,10.243,11.347
	C41.407,55.381,36.3,60.488,29.998,60.488z"/>
<path fill="#231F20" d="M90.423,80.323c0.029-3.501-7.069-3.611-8.385-6.854c-1.308-3.243,3.808-8.039,1.356-10.533
	c-2.455-2.497-7.251,2.629-10.472,1.261c-3.223-1.369-3.302-8.351-6.797-8.586c-3.094-0.206-4.251,5.652-7.116,6.847
	c-2.929,1.214-8.075-2.112-10.271,0.184c-2.188,2.286,1.371,6.79,0.316,9.334c-1.082,2.598-7.862,4.579-7.644,7.931
	c0.234,3.495,7.222,3.547,8.531,6.789c1.31,3.248-3.954,8.107-1.503,10.603c2.456,2.492,7.327-2.13,10.55-0.766
	c3.218,1.364,3.223,8.056,6.719,8.093c3.5,0.029,4.771-6.248,8.014-7.562c3.243-1.308,6.878,2.984,9.375,0.529
	c2.495-2.453-1.859-7.781-0.495-11.004C83.967,83.369,90.394,83.823,90.423,80.323z M65.915,91.523
	c-6.302,0-11.409-5.109-11.409-11.411c0-6.3,5.107-11.407,11.409-11.407s11.408,5.107,11.408,11.407
	C77.323,86.414,72.217,91.523,65.915,91.523z"/>
</svg>
