<svg xmlns="http://www.w3.org/2000/svg" xmlns:xlink="http://www.w3.org/1999/xlink" version="1.1" id="Layer_1" x="0px" y="0px" width="100px" height="100px" viewBox="0 0 100 100" enable-background="new 0 0 100 100" xml:space="preserve">
<path d="M87.783,53.457c-0.034-0.117-3.428-11.565-6.113-20.791c-1.636-5.632-5.479-11.338-10.535-15.649  c-4.299-3.669-11.536-8.042-21.56-8.042c-8.413,0-17.007,3.516-23.584,9.644c-6.643,6.194-10.454,14.351-10.454,22.38  c0,7.512,2.378,14.963,6.87,21.541c2.368,3.467,4.741,5.85,6.011,7.012v13.904c0,1.204,0.867,2.234,2.053,2.439l10.535,1.826V51.675  h-6.519c-2.388,0-4.326-1.936-4.326-4.326c0-0.815,0.229-1.577,0.625-2.227c-0.625,0.349-1.343,0.552-2.109,0.552  c-2.388,0-4.324-1.938-4.324-4.326c0-1.919,1.25-3.542,2.981-4.109c-1.318-0.742-2.207-2.151-2.207-3.767  c0-2.388,1.936-4.326,4.326-4.326c0.364,0,0.713,0.051,1.055,0.137c-0.449-0.725-0.713-1.577-0.713-2.49  c0-2.622,2.124-4.746,4.744-4.746c1.062,0,2.039,0.354,2.83,0.942c-0.068-0.303-0.105-0.618-0.105-0.942  c0-2.388,1.936-4.326,4.324-4.326c1.626,0,3.042,0.898,3.779,2.224c0.374-2.356,2.41-4.158,4.873-4.158  c2.461,0,4.495,1.802,4.868,4.158c0.74-1.326,2.153-2.224,3.779-2.224c2.388,0,4.326,1.938,4.326,4.326  c0,0.322-0.039,0.637-0.105,0.942c0.737-0.591,1.67-0.942,2.688-0.942c2.388,0,4.321,1.938,4.321,4.326  c0,0.754-0.193,1.465-0.532,2.083c0.278-0.051,0.564-0.083,0.859-0.083c2.6,0,4.709,2.112,4.709,4.714  c0,1.758-0.964,3.289-2.393,4.097c1.826,0.508,3.167,2.178,3.167,4.165c0,2.388-1.936,4.326-4.324,4.326c0,0-22.078,0-23.303,0  s-2.388,0.024-2.388,2.192c0,2.893,0,31.157,0,40.706l13.938,2.417c0.139,0.024,0.281,0.037,0.422,0.037  c0.579,0,1.145-0.203,1.594-0.581c0.559-0.471,0.881-1.165,0.881-1.895V76.106l14.653-0.879c1.318-0.078,2.341-1.174,2.329-2.495  l-0.146-16.096h5.82c0.784,0,1.519-0.369,1.987-0.996C87.859,55.015,88.003,54.207,87.783,53.457z"/>
</svg>