<svg xmlns="http://www.w3.org/2000/svg" xmlns:xlink="http://www.w3.org/1999/xlink" version="1.1" id="Layer_1" x="0px" y="0px" width="100px" height="100px" viewBox="0 0 100 100" enable-background="new 0 0 100 100" xml:space="preserve">
<path d="M50.219,42.258c-24.982,0-44.558,5.809-44.628,13.231c0,0.005-0.003,0.009-0.003,0.014c0,0.007,0.001,0.014,0,0.021  c0,0.002,0,0.003,0,0.005c0,0.003,0.001,0.005,0.001,0.008c-0.068,2.326,0.842,4.484,2.708,6.414  c5.938,6.141,21.61,9.807,41.922,9.807c32.907,0,44.631-8.384,44.631-16.229C94.85,48.088,75.246,42.258,50.219,42.258z   M50.219,43.78c25.787,0,43.11,6.075,43.11,11.75c0,5.674-17.322,11.75-43.11,11.75s-43.11-6.075-43.11-11.75  C7.109,49.855,24.432,43.78,50.219,43.78z M9.661,61.156c6.999,4.553,22.337,7.645,40.558,7.645c17.825,0,32.893-2.959,40.092-7.35  c-6.022,5.425-20.649,8.786-40.092,8.786C30.909,70.237,15.451,66.765,9.661,61.156z"/>
<g>
	<path d="M50.217,65.525c-18.888,0-38.962-3.544-38.962-10.112s20.074-10.112,38.962-10.112s38.962,3.544,38.962,10.112   S69.105,65.525,50.217,65.525z M50.217,46.823c-22.064,0-37.441,4.527-37.441,8.59s15.377,8.59,37.441,8.59   s37.441-4.527,37.441-8.59S72.281,46.823,50.217,46.823z"/>
</g>
<g>
	<path d="M55.671,63.147h-8.939c-0.28,0-0.507-0.227-0.507-0.507c0-0.28,0.227-0.507,0.507-0.507h8.939   c0.28,0,0.507,0.227,0.507,0.507C56.178,62.921,55.952,63.147,55.671,63.147z"/>
</g>
<g>
	<path d="M55.671,58.266h-8.939c-0.28,0-0.507-0.227-0.507-0.507c0-0.28,0.227-0.507,0.507-0.507h8.939   c0.28,0,0.507,0.227,0.507,0.507C56.178,58.039,55.952,58.266,55.671,58.266z"/>
</g>
<g>
	<path d="M55.354,53.511h-8.939c-0.28,0-0.507-0.227-0.507-0.507c0-0.28,0.227-0.507,0.507-0.507h8.939   c0.28,0,0.507,0.227,0.507,0.507C55.861,53.284,55.635,53.511,55.354,53.511z"/>
</g>
<g>
	<path d="M67.717,58.266h-8.939c-0.28,0-0.507-0.227-0.507-0.507c0-0.28,0.227-0.507,0.507-0.507h8.939   c0.28,0,0.507,0.227,0.507,0.507C68.224,58.039,67.997,58.266,67.717,58.266z"/>
</g>
<g>
	<path d="M67.4,53.511h-8.939c-0.28,0-0.507-0.227-0.507-0.507c0-0.28,0.227-0.507,0.507-0.507H67.4c0.28,0,0.507,0.227,0.507,0.507   C67.907,53.284,67.68,53.511,67.4,53.511z"/>
</g>
<g>
	<path d="M79.952,58.266h-8.939c-0.28,0-0.507-0.227-0.507-0.507c0-0.28,0.227-0.507,0.507-0.507h8.939   c0.28,0,0.507,0.227,0.507,0.507C80.459,58.039,80.232,58.266,79.952,58.266z"/>
</g>
<g>
	<path d="M79.635,53.511h-8.939c-0.28,0-0.507-0.227-0.507-0.507c0-0.28,0.227-0.507,0.507-0.507h8.939   c0.28,0,0.507,0.227,0.507,0.507C80.142,53.284,79.915,53.511,79.635,53.511z"/>
</g>
<g>
	<path d="M55.671,48.693h-8.939c-0.28,0-0.507-0.227-0.507-0.507s0.227-0.507,0.507-0.507h8.939c0.28,0,0.507,0.227,0.507,0.507   S55.952,48.693,55.671,48.693z"/>
</g>
<g>
	<path d="M48.951,60.675h-8.939c-0.28,0-0.507-0.227-0.507-0.507c0-0.28,0.227-0.507,0.507-0.507h8.939   c0.28,0,0.507,0.227,0.507,0.507C49.458,60.448,49.232,60.675,48.951,60.675z"/>
</g>
<g>
	<path d="M61.504,60.675h-8.939c-0.28,0-0.507-0.227-0.507-0.507c0-0.28,0.227-0.507,0.507-0.507h8.939   c0.28,0,0.507,0.227,0.507,0.507C62.011,60.448,61.784,60.675,61.504,60.675z"/>
</g>
<g>
	<path d="M48.951,55.984h-8.939c-0.28,0-0.507-0.227-0.507-0.507c0-0.28,0.227-0.507,0.507-0.507h8.939   c0.28,0,0.507,0.227,0.507,0.507C49.458,55.757,49.232,55.984,48.951,55.984z"/>
</g>
<g>
	<path d="M61.504,55.984h-8.939c-0.28,0-0.507-0.227-0.507-0.507c0-0.28,0.227-0.507,0.507-0.507h8.939   c0.28,0,0.507,0.227,0.507,0.507C62.011,55.757,61.784,55.984,61.504,55.984z"/>
</g>
<g>
	<path d="M48.951,51.03h-8.939c-0.28,0-0.507-0.227-0.507-0.507c0-0.28,0.227-0.507,0.507-0.507h8.939   c0.28,0,0.507,0.227,0.507,0.507C49.458,50.803,49.232,51.03,48.951,51.03z"/>
</g>
<g>
	<path d="M42.865,58.266h-8.939c-0.28,0-0.507-0.227-0.507-0.507c0-0.28,0.227-0.507,0.507-0.507h8.939   c0.28,0,0.507,0.227,0.507,0.507C43.372,58.039,43.145,58.266,42.865,58.266z"/>
</g>
<g>
	<path d="M42.548,53.511h-8.939c-0.28,0-0.507-0.227-0.507-0.507c0-0.28,0.227-0.507,0.507-0.507h8.939   c0.28,0,0.507,0.227,0.507,0.507C43.055,53.284,42.828,53.511,42.548,53.511z"/>
</g>
<g>
	<path d="M30.249,58.266H21.31c-0.28,0-0.507-0.227-0.507-0.507c0-0.28,0.227-0.507,0.507-0.507h8.939   c0.28,0,0.507,0.227,0.507,0.507C30.756,58.039,30.53,58.266,30.249,58.266z"/>
</g>
<g>
	<path d="M29.932,53.511h-8.939c-0.28,0-0.507-0.227-0.507-0.507c0-0.28,0.227-0.507,0.507-0.507h8.939   c0.28,0,0.507,0.227,0.507,0.507C30.439,53.284,30.213,53.511,29.932,53.511z"/>
</g>
<g>
	<path d="M36.145,60.675h-8.939c-0.28,0-0.507-0.227-0.507-0.507c0-0.28,0.227-0.507,0.507-0.507h8.939   c0.28,0,0.507,0.227,0.507,0.507C36.652,60.448,36.425,60.675,36.145,60.675z"/>
</g>
<g>
	<path d="M36.145,55.984h-8.939c-0.28,0-0.507-0.227-0.507-0.507c0-0.28,0.227-0.507,0.507-0.507h8.939   c0.28,0,0.507,0.227,0.507,0.507C36.652,55.757,36.425,55.984,36.145,55.984z"/>
</g>
<g>
	<path d="M23.783,55.984h-8.939c-0.28,0-0.507-0.227-0.507-0.507c0-0.28,0.227-0.507,0.507-0.507h8.939   c0.28,0,0.507,0.227,0.507,0.507C24.29,55.757,24.063,55.984,23.783,55.984z"/>
</g>
<g>
	<path d="M36.145,51.03h-8.939c-0.28,0-0.507-0.227-0.507-0.507c0-0.28,0.227-0.507,0.507-0.507h8.939   c0.28,0,0.507,0.227,0.507,0.507C36.652,50.803,36.425,51.03,36.145,51.03z"/>
</g>
<g>
	<path d="M61.504,51.03h-8.939c-0.28,0-0.507-0.227-0.507-0.507c0-0.28,0.227-0.507,0.507-0.507h8.939   c0.28,0,0.507,0.227,0.507,0.507C62.011,50.803,61.784,51.03,61.504,51.03z"/>
</g>
<g>
	<path d="M73.169,60.675H64.23c-0.28,0-0.507-0.227-0.507-0.507c0-0.28,0.227-0.507,0.507-0.507h8.939   c0.28,0,0.507,0.227,0.507,0.507C73.676,60.448,73.449,60.675,73.169,60.675z"/>
</g>
<g>
	<path d="M73.169,55.984H64.23c-0.28,0-0.507-0.227-0.507-0.507c0-0.28,0.227-0.507,0.507-0.507h8.939   c0.28,0,0.507,0.227,0.507,0.507C73.676,55.757,73.449,55.984,73.169,55.984z"/>
</g>
<g>
	<path d="M84.802,55.984h-8.939c-0.28,0-0.507-0.227-0.507-0.507c0-0.28,0.227-0.507,0.507-0.507h8.939   c0.28,0,0.507,0.227,0.507,0.507C85.309,55.757,85.082,55.984,84.802,55.984z"/>
</g>
<g>
	<path d="M73.169,51.03H64.23c-0.28,0-0.507-0.227-0.507-0.507c0-0.28,0.227-0.507,0.507-0.507h8.939   c0.28,0,0.507,0.227,0.507,0.507C73.676,50.803,73.449,51.03,73.169,51.03z"/>
</g>
</svg>