<svg xmlns="http://www.w3.org/2000/svg" xmlns:xlink="http://www.w3.org/1999/xlink" version="1.1" id="Your_Icon" x="0px" y="0px" width="100px" height="100px" viewBox="0 0 100 100" enable-background="new 0 0 100 100" xml:space="preserve">
<path d="M44.89,25.767h2.754v7.017h-5.629C42.599,30.271,43.579,27.903,44.89,25.767z"/>
<rect x="50.948" y="25.767" width="7.016" height="7.017"/>
<path d="M57.964,15.4v7.062h-7.016V19.08C53.041,17.482,55.41,16.227,57.964,15.4z"/>
<path d="M68.298,14.365v8.097h-7.029v-7.897c1.366-0.243,2.767-0.364,4.197-0.364C66.426,14.2,67.371,14.255,68.298,14.365z"/>
<path d="M78.619,18.11v4.352h-7.018v-7.469C74.126,15.654,76.492,16.712,78.619,18.11z"/>
<rect x="61.269" y="25.767" width="7.029" height="7.017"/>
<rect x="71.602" y="25.767" width="7.018" height="7.017"/>
<path d="M88.931,32.783h-7.007v-7.017h4.13C87.365,27.903,88.345,30.271,88.931,32.783z"/>
<path d="M41.475,36.088h6.169v7.027h-5.772c-0.331-1.553-0.496-3.172-0.496-4.824C41.376,37.553,41.409,36.814,41.475,36.088z"/>
<rect x="50.948" y="36.088" width="7.016" height="7.027"/>
<rect x="61.269" y="36.088" width="7.029" height="7.027"/>
<rect x="71.602" y="36.088" width="7.018" height="7.027"/>
<path d="M89.568,38.291c0,1.652-0.166,3.261-0.486,4.824h-7.158v-7.027h7.547C89.535,36.814,89.568,37.553,89.568,38.291z"/>
<path d="M81.924,14.706c-1.047-0.748-2.16-1.409-3.305-1.993c-3.943-2.049-8.417-3.194-13.153-3.194  c-15.86,0-28.771,12.91-28.771,28.772c0,2.313,0.287,4.626,0.826,6.862c0.11,0.43,0.221,0.849,0.342,1.267  c0.33,1.124,0.727,2.226,1.19,3.305h-4.561c-3.426,0-9.914,2.071-9.914,9.915v17.625h3.305V59.64c0-6.368,5.937-6.6,6.609-6.61  H80.14c-0.484,0.485-0.991,0.97-1.521,1.433c-0.749,0.672-1.541,1.301-2.379,1.873c-1.421,0.979-2.964,1.773-4.639,2.247  c-1.045,0.308-2.146,0.484-3.304,0.495c-0.066,0.012-0.144,0.012-0.21,0.012h-4.956c-0.133,0-0.276,0-0.418,0.011  c-0.1,0-0.211,0.01-0.319,0.022h-0.057c-0.164,0.011-0.342,0.032-0.529,0.065c-0.075,0-0.153,0.01-0.23,0.033  c-0.099,0.01-0.197,0.034-0.31,0.056c-0.075,0.01-0.164,0.021-0.241,0.043c-0.177,0.033-0.353,0.065-0.528,0.122  c-0.21,0.054-0.407,0.109-0.617,0.176c-0.021,0.012-0.033,0.012-0.055,0.022c-0.021,0.01-0.033,0.01-0.055,0.021  c-0.166,0.043-0.33,0.1-0.496,0.176c-0.22,0.077-0.441,0.165-0.673,0.275c-0.219,0.099-0.429,0.199-0.64,0.319  c-0.032,0.012-0.065,0.033-0.098,0.056c-0.264,0.143-0.518,0.297-0.772,0.474c-2.146,1.477-3.876,3.987-3.876,8.041v8.263h3.305  v-8.263c0-1.289,0.243-2.325,0.639-3.151c0.264,0.089,0.529,0.166,0.803,0.232c1.093,0.297,2.193,0.528,3.305,0.682  c1.39,0.211,2.788,0.31,4.197,0.31c1.146,0,2.281-0.065,3.395-0.21c0.924-0.1,1.839-0.253,2.741-0.451  c2.469-0.54,4.825-1.388,7.018-2.534c1.145-0.582,2.258-1.244,3.305-1.992c2.236-1.554,4.242-3.437,5.948-5.552  c0.849-1.047,1.619-2.148,2.303-3.306c2.589-4.318,4.075-9.362,4.075-14.738C94.25,28.542,89.371,19.906,81.924,14.706z   M89.612,46.42c-0.793,2.38-1.938,4.605-3.382,6.609c-0.826,1.18-1.763,2.281-2.786,3.306c-0.485,0.484-0.991,0.947-1.521,1.388  c-1.034,0.893-2.137,1.685-3.305,2.39c-2.16,1.301-4.517,2.292-7.018,2.908c-1.079,0.276-2.18,0.474-3.304,0.583  c-0.927,0.111-1.872,0.166-2.832,0.166c-1.42,0-2.819-0.121-4.197-0.353c-0.461-0.065-0.912-0.154-1.364-0.263  c0.473-0.233,0.937-0.387,1.364-0.497c0.916-0.243,1.653-0.265,1.863-0.265h2.203c0.188,0,0.364,0,0.551-0.012  c0.814-0.021,1.619-0.076,2.412-0.176c1.124-0.131,2.235-0.353,3.304-0.638c0.32-0.089,0.64-0.177,0.948-0.276  c2.169-0.684,4.208-1.651,6.069-2.863c0.958-0.629,1.883-1.333,2.742-2.093c0.187-0.166,0.374-0.342,0.563-0.518  c0.914-0.859,1.764-1.796,2.534-2.788c0.418-0.529,0.814-1.079,1.178-1.642c0.044-0.011,0.077-0.011,0.077-0.011  c0.992-1.542,1.819-3.194,2.445-4.957h-6.234v3.305h-3.305V46.42h-7.018v3.305h-3.304V46.42h-7.029v3.305h-3.305V46.42h-7.016v3.305  h-3.304V46.42h-4.858c0.408,1.146,0.903,2.248,1.476,3.305h-1.564c-0.54-1.068-0.992-2.17-1.377-3.305  c-0.363-1.079-0.65-2.192-0.87-3.305c-0.297-1.586-0.452-3.194-0.452-4.824c0-0.738,0.033-1.477,0.099-2.203  c0.088-1.124,0.266-2.225,0.507-3.305c0.54-2.5,1.465-4.857,2.688-7.017c0.661-1.168,1.41-2.27,2.247-3.305  c0.65-0.826,1.354-1.608,2.104-2.336c1.013-1.013,2.125-1.928,3.304-2.742c2.126-1.487,4.483-2.654,7.016-3.437  c1.07-0.33,2.172-0.596,3.305-0.771c1.366-0.231,2.767-0.353,4.197-0.353c0.96,0,1.905,0.055,2.832,0.165  c1.124,0.11,2.225,0.309,3.304,0.584c2.501,0.617,4.857,1.608,7.018,2.908c1.168,0.705,2.271,1.498,3.305,2.391  c1.277,1.068,2.445,2.28,3.48,3.591c0.838,1.035,1.588,2.137,2.247,3.305c1.224,2.159,2.148,4.517,2.688,7.017  c0.242,1.08,0.418,2.181,0.507,3.305c0.065,0.727,0.099,1.465,0.099,2.203c0,1.652-0.154,3.261-0.464,4.824  C90.273,44.25,89.978,45.352,89.612,46.42z"/>
<path d="M41.581,90.481c-22.03,0-36.831-5.533-36.831-13.77c0-2.911,1.888-7.046,10.879-10.191c0.861-0.301,1.804,0.154,2.105,1.015  c0.301,0.863-0.153,1.805-1.015,2.106c-5.506,1.925-8.665,4.503-8.665,7.07c0,5.146,12.54,10.465,33.526,10.465  c5.142,0,9.994-0.326,14.42-0.967c0.911-0.133,1.741,0.496,1.872,1.396c0.133,0.903-0.494,1.742-1.396,1.873  C51.892,90.145,46.88,90.481,41.581,90.481z"/>
<path d="M58.726,70.148v3.37c4.385,1.09,6.609,2.413,6.609,3.193c0,1.487-8.086,4.958-23.749,4.958  c-8.537,0-14.816-1.024-18.771-2.203c-0.155-0.045-0.298-0.088-0.441-0.144c-3.029-0.937-4.549-1.961-4.549-2.611  c0-0.648,1.52-1.672,4.549-2.61v-3.426c-4.704,1.355-7.854,3.35-7.854,6.036c0,5.675,14.022,8.263,27.065,8.263  c13.03,0,27.053-2.588,27.053-8.263C68.639,73.65,64.542,71.48,58.726,70.148z"/>
<rect x="32.839" y="71.067" width="3.305" height="6.197"/>
<rect x="43.992" y="71.067" width="3.305" height="6.197"/>
</svg>