<svg xmlns="http://www.w3.org/2000/svg" xmlns:xlink="http://www.w3.org/1999/xlink" version="1.1" id="Layer_1" x="0px" y="0px" width="50.4px" height="50.4px" viewBox="0 0 50.4 50.4" enable-background="new 0 0 50.4 50.4" xml:space="preserve">
<g id="Layer_2">
</g>
<path d="M50.404,10.876h-8.751V7.75H31.531v3.126h-8.608v34.548h0.052l11.569-0.002v-6.31h4.258v6.31l11.597-0.001L50.404,10.876z   M31.526,33.771h-4.243v-4.242h4.243V33.771z M31.526,26.737h-4.243v-4.243h4.243V26.737z M31.526,19.702h-4.243v-4.243h4.243  V19.702z M38.785,29.529v4.243h-4.242v-4.243v-0.003h4.242V29.529z M38.785,26.739h-4.242v-4.245h4.242V26.739z M38.785,19.702  h-4.242v-4.243h4.242V19.702z M46.044,33.771H41.8v-4.242h4.244V33.771z M46.044,26.737H41.8v-4.243h4.244V26.737z M46.044,19.702  H41.8v-4.243h4.244V19.702z"/>
<polygon points="19.898,14.616 13.032,14.616 13.032,7.75 6.866,7.75 6.866,14.616 0,14.616 0,20.778 6.866,20.778 6.866,27.647   13.032,27.647 13.032,20.778 19.898,20.778 "/>
</svg>