<svg xmlns="http://www.w3.org/2000/svg" xmlns:xlink="http://www.w3.org/1999/xlink" version="1.1" id="Layer_1" x="0px" y="0px" width="100px" height="100px" viewBox="0 0 100 100" enable-background="new 0 0 100 100" xml:space="preserve">
<rect fill="none" width="100" height="100"/>
<g>
	<g opacity="0.25">
		<path d="M81.236,11.461C81.236,7.267,73.602,5,66.418,5c-5.066,0-9.711,1.062-12.367,2.795c-1.057-0.426-2.233-0.649-3.443-0.649    c-4.028,0-7.185,2.345-7.185,5.335c0,0.816,0.246,1.613,0.705,2.327c-1.488,0.922-2.415,2.452-2.415,4.153    c0,0.487,0.074,0.959,0.223,1.418c-0.468,0.797-0.714,1.664-0.714,2.535c0,0.779,0.195,1.553,0.565,2.267    c-0.603,0.83-0.932,1.798-0.932,2.795c0,0.695,0.162,1.381,0.5,2.077l0.325,0.723c-8.065,0.653-15.477,3.189-15.477,7.94    c0,0.723,0.176,1.391,0.496,2.012c0.315,1.043,1.335,7.105,1.335,12.454c0,11.681-2.646,20.784-8.083,27.829    c-0.074,0.093-0.135,0.19-0.19,0.293c-0.658,0.991-0.997,2.021-0.997,3.063C18.764,91.348,32.428,95,45.926,95    c13.497,0,27.157-3.652,27.157-10.633c0-0.798-0.194-1.585-0.579-2.354c-0.056-0.357-0.2-0.705-0.432-1.002    c-5.437-7.045-8.079-16.148-8.079-27.829c0-5.464,1.062-11.685,1.335-12.478c0.106-0.246,0.135-0.505,0.13-0.765    c0.116-0.394,0.194-0.797,0.194-1.224c0-4.38-6.299-6.878-13.599-7.754c0.672-0.839,1.047-1.822,1.075-2.855    c1.381-0.64,2.466-1.585,3.114-2.711c0.408,0.023,0.82,0.032,1.242,0.032c7.676,0,13.688-3.078,13.688-7.008    c0-0.273-0.027-0.547-0.088-0.815C76.351,16.871,81.236,14.785,81.236,11.461z M68.035,82.939c0.069,0.25,0.176,0.486,0.334,0.7    c0.213,0.292,0.329,0.551,0.329,0.728c0,2.118-8.037,6.248-22.772,6.248c-14.735,0-22.772-4.13-22.772-6.248    c0-0.177,0.116-0.436,0.325-0.728c0.037-0.047,0.069-0.098,0.102-0.148c5.947-7.815,8.839-17.729,8.839-30.31    c0-2.822-0.264-5.942-0.603-8.551c0.218,0.083,0.454,0.157,0.682,0.236c0.004,0,0.004,0,0.009,0.004    c0.941,0.334,1.938,0.621,2.99,0.862c0.028,0.009,0.061,0.014,0.088,0.019c0.5,0.116,1.001,0.223,1.516,0.315    c0.144,0.028,0.292,0.046,0.44,0.074c0.403,0.07,0.811,0.139,1.228,0.2c0.445,0.064,0.895,0.116,1.349,0.167    c0.129,0.014,0.259,0.037,0.389,0.051c1.785,0.185,3.611,0.278,5.418,0.278c1.817,0,3.667-0.097,5.46-0.287    c0.199-0.019,0.398-0.046,0.594-0.07c0.389-0.046,0.773-0.093,1.154-0.148c0.366-0.051,0.728-0.116,1.089-0.176    c0.194-0.033,0.39-0.065,0.584-0.098c0.459-0.083,0.899-0.181,1.335-0.278c0.093-0.023,0.186-0.037,0.269-0.061    c0.487-0.111,0.955-0.236,1.419-0.366c0.037-0.014,0.069-0.023,0.102-0.033c0.482-0.139,0.95-0.287,1.404-0.45    c0.014,0,0.023-0.004,0.032-0.009c0.283-0.102,0.58-0.194,0.849-0.306c-0.339,2.628-0.612,5.78-0.612,8.625    C59.604,65.465,62.362,75.213,68.035,82.939z M61.268,38.688c-0.009,0.032-0.064,0.074-0.078,0.106    c-0.103,0.167-0.265,0.343-0.478,0.52c-0.065,0.046-0.14,0.097-0.214,0.148c-0.171,0.125-0.37,0.25-0.593,0.375    c-0.213,0.121-0.454,0.241-0.719,0.362c-0.157,0.074-0.324,0.148-0.505,0.222c-0.315,0.13-0.677,0.26-1.057,0.39    c-0.236,0.079-0.473,0.157-0.737,0.236c-0.338,0.102-0.714,0.199-1.094,0.296c-0.38,0.093-0.756,0.186-1.168,0.273    c-0.329,0.07-0.695,0.125-1.053,0.19c-0.491,0.088-0.987,0.176-1.52,0.246c-0.418,0.056-0.876,0.093-1.321,0.139    c-0.51,0.051-1.011,0.111-1.553,0.144c-1.024,0.069-2.1,0.111-3.254,0.111s-2.229-0.042-3.254-0.111    c-0.552-0.033-1.062-0.093-1.585-0.148c-0.427-0.042-0.872-0.079-1.275-0.134c-0.565-0.074-1.089-0.167-1.608-0.26    c-0.315-0.056-0.64-0.106-0.932-0.167c-0.473-0.097-0.909-0.204-1.335-0.315c-0.296-0.074-0.598-0.148-0.872-0.232    c-0.361-0.106-0.695-0.213-1.02-0.324c-0.25-0.088-0.5-0.176-0.723-0.269c-0.333-0.13-0.644-0.264-0.922-0.403    c-0.106-0.051-0.213-0.102-0.311-0.153c-0.742-0.398-1.251-0.802-1.465-1.173c-0.009-0.014-0.019-0.014-0.032-0.028    c0.273-0.95,4.64-3.235,12.904-3.638c0.324,0.917,0.593,1.812,0.695,2.637c0.065,0.487,0.445,0.872,0.927,0.946    c0.056,0.009,0.111,0.009,0.167,0.009c0.422,0,0.816-0.246,0.997-0.64c0.45-0.992,1.159-2.007,1.928-2.962    C56.609,35.467,61.022,37.789,61.268,38.688z M69.421,15.586c-0.385,0.037-0.718,0.269-0.89,0.617    c-0.167,0.343-0.139,0.751,0.069,1.075c0.25,0.385,0.38,0.77,0.38,1.14c0,2.276-4.723,4.816-11.495,4.816    c-0.625,0-1.232-0.032-1.83-0.074c-0.469-0.028-0.928,0.25-1.099,0.705c-0.413,1.071-1.483,1.979-2.943,2.489    c-0.51,0.176-0.812,0.7-0.719,1.228c0.023,0.13,0.042,0.26,0.042,0.394c0,0.76-0.366,1.498-1.141,2.16    c-1.122,1.122-2.771,2.772-4.083,4.598c-0.5-1.506-1.205-3.041-1.886-4.547l-0.519-1.122c-0.167-0.357-0.255-0.723-0.255-1.089    c0-0.88,0.468-1.52,0.858-1.905c0.394-0.38,0.445-0.997,0.116-1.437c-0.408-0.547-0.612-1.122-0.612-1.72    c0-0.603,0.213-1.187,0.63-1.743c0.246-0.329,0.287-0.765,0.116-1.131c-0.171-0.348-0.255-0.714-0.255-1.08    c0-1.224,0.941-2.308,2.336-2.698c0.39-0.111,0.691-0.431,0.774-0.83s-0.061-0.811-0.371-1.075    c-0.468-0.385-1.024-1.029-1.024-1.877c0-1.701,2.281-3.143,4.988-3.143c1.107,0,2.169,0.241,3.068,0.695    c0.375,0.19,0.829,0.144,1.163-0.111c2.137-1.655,6.684-2.725,11.579-2.725c7.823,0,12.626,2.484,12.626,4.264    C79.044,13.028,75.363,15.049,69.421,15.586z"/>
	</g>
	<g>
		<path d="M81.236,11.461C81.236,7.267,73.602,5,66.418,5c-5.066,0-9.711,1.062-12.367,2.795c-1.057-0.426-2.233-0.649-3.443-0.649    c-4.028,0-7.185,2.345-7.185,5.335c0,0.816,0.246,1.613,0.705,2.327c-1.488,0.922-2.415,2.452-2.415,4.153    c0,0.487,0.074,0.959,0.223,1.418c-0.468,0.797-0.714,1.664-0.714,2.535c0,0.779,0.195,1.553,0.565,2.267    c-0.603,0.83-0.932,1.798-0.932,2.795c0,0.695,0.162,1.381,0.5,2.077l0.325,0.723c-8.065,0.653-15.477,3.189-15.477,7.94    c0,0.723,0.176,1.391,0.496,2.012c0.315,1.043,1.335,7.105,1.335,12.454c0,11.681-2.646,20.784-8.083,27.829    c-0.074,0.093-0.135,0.19-0.19,0.293c-0.658,0.991-0.997,2.021-0.997,3.063C18.764,91.348,32.428,95,45.926,95    c13.497,0,27.157-3.652,27.157-10.633c0-0.798-0.194-1.585-0.579-2.354c-0.056-0.357-0.2-0.705-0.432-1.002    c-5.437-7.045-8.079-16.148-8.079-27.829c0-5.464,1.062-11.685,1.335-12.478c0.106-0.246,0.135-0.505,0.13-0.765    c0.116-0.394,0.194-0.797,0.194-1.224c0-4.38-6.299-6.878-13.599-7.754c0.672-0.839,1.047-1.822,1.075-2.855    c1.381-0.64,2.466-1.585,3.114-2.711c0.408,0.023,0.82,0.032,1.242,0.032c7.676,0,13.688-3.078,13.688-7.008    c0-0.273-0.027-0.547-0.088-0.815C76.351,16.871,81.236,14.785,81.236,11.461z M68.035,82.939c0.069,0.25,0.176,0.486,0.334,0.7    c0.213,0.292,0.329,0.551,0.329,0.728c0,2.118-8.037,6.248-22.772,6.248c-14.735,0-22.772-4.13-22.772-6.248    c0-0.177,0.116-0.436,0.325-0.728c0.037-0.047,0.069-0.098,0.102-0.148c5.947-7.815,8.839-17.729,8.839-30.31    c0-2.822-0.264-5.942-0.603-8.551c0.218,0.083,0.454,0.157,0.682,0.236c0.004,0,0.004,0,0.009,0.004    c0.941,0.334,1.938,0.621,2.99,0.862c0.028,0.009,0.061,0.014,0.088,0.019c0.5,0.116,1.001,0.223,1.516,0.315    c0.144,0.028,0.292,0.046,0.44,0.074c0.403,0.07,0.811,0.139,1.228,0.2c0.445,0.064,0.895,0.116,1.349,0.167    c0.129,0.014,0.259,0.037,0.389,0.051c1.785,0.185,3.611,0.278,5.418,0.278c1.817,0,3.667-0.097,5.46-0.287    c0.199-0.019,0.398-0.046,0.594-0.07c0.389-0.046,0.773-0.093,1.154-0.148c0.366-0.051,0.728-0.116,1.089-0.176    c0.194-0.033,0.39-0.065,0.584-0.098c0.459-0.083,0.899-0.181,1.335-0.278c0.093-0.023,0.186-0.037,0.269-0.061    c0.487-0.111,0.955-0.236,1.419-0.366c0.037-0.014,0.069-0.023,0.102-0.033c0.482-0.139,0.95-0.287,1.404-0.45    c0.014,0,0.023-0.004,0.032-0.009c0.283-0.102,0.58-0.194,0.849-0.306c-0.339,2.628-0.612,5.78-0.612,8.625    C59.604,65.465,62.362,75.213,68.035,82.939z M61.268,38.688c-0.009,0.032-0.064,0.074-0.078,0.106    c-0.103,0.167-0.265,0.343-0.478,0.52c-0.065,0.046-0.14,0.097-0.214,0.148c-0.171,0.125-0.37,0.25-0.593,0.375    c-0.213,0.121-0.454,0.241-0.719,0.362c-0.157,0.074-0.324,0.148-0.505,0.222c-0.315,0.13-0.677,0.26-1.057,0.39    c-0.236,0.079-0.473,0.157-0.737,0.236c-0.338,0.102-0.714,0.199-1.094,0.296c-0.38,0.093-0.756,0.186-1.168,0.273    c-0.329,0.07-0.695,0.125-1.053,0.19c-0.491,0.088-0.987,0.176-1.52,0.246c-0.418,0.056-0.876,0.093-1.321,0.139    c-0.51,0.051-1.011,0.111-1.553,0.144c-1.024,0.069-2.1,0.111-3.254,0.111s-2.229-0.042-3.254-0.111    c-0.552-0.033-1.062-0.093-1.585-0.148c-0.427-0.042-0.872-0.079-1.275-0.134c-0.565-0.074-1.089-0.167-1.608-0.26    c-0.315-0.056-0.64-0.106-0.932-0.167c-0.473-0.097-0.909-0.204-1.335-0.315c-0.296-0.074-0.598-0.148-0.872-0.232    c-0.361-0.106-0.695-0.213-1.02-0.324c-0.25-0.088-0.5-0.176-0.723-0.269c-0.333-0.13-0.644-0.264-0.922-0.403    c-0.106-0.051-0.213-0.102-0.311-0.153c-0.742-0.398-1.251-0.802-1.465-1.173c-0.009-0.014-0.019-0.014-0.032-0.028    c0.273-0.95,4.64-3.235,12.904-3.638c0.324,0.917,0.593,1.812,0.695,2.637c0.065,0.487,0.445,0.872,0.927,0.946    c0.056,0.009,0.111,0.009,0.167,0.009c0.422,0,0.816-0.246,0.997-0.64c0.45-0.992,1.159-2.007,1.928-2.962    C56.609,35.467,61.022,37.789,61.268,38.688z M69.421,15.586c-0.385,0.037-0.718,0.269-0.89,0.617    c-0.167,0.343-0.139,0.751,0.069,1.075c0.25,0.385,0.38,0.77,0.38,1.14c0,2.276-4.723,4.816-11.495,4.816    c-0.625,0-1.232-0.032-1.83-0.074c-0.469-0.028-0.928,0.25-1.099,0.705c-0.413,1.071-1.483,1.979-2.943,2.489    c-0.51,0.176-0.812,0.7-0.719,1.228c0.023,0.13,0.042,0.26,0.042,0.394c0,0.76-0.366,1.498-1.141,2.16    c-1.122,1.122-2.771,2.772-4.083,4.598c-0.5-1.506-1.205-3.041-1.886-4.547l-0.519-1.122c-0.167-0.357-0.255-0.723-0.255-1.089    c0-0.88,0.468-1.52,0.858-1.905c0.394-0.38,0.445-0.997,0.116-1.437c-0.408-0.547-0.612-1.122-0.612-1.72    c0-0.603,0.213-1.187,0.63-1.743c0.246-0.329,0.287-0.765,0.116-1.131c-0.171-0.348-0.255-0.714-0.255-1.08    c0-1.224,0.941-2.308,2.336-2.698c0.39-0.111,0.691-0.431,0.774-0.83s-0.061-0.811-0.371-1.075    c-0.468-0.385-1.024-1.029-1.024-1.877c0-1.701,2.281-3.143,4.988-3.143c1.107,0,2.169,0.241,3.068,0.695    c0.375,0.19,0.829,0.144,1.163-0.111c2.137-1.655,6.684-2.725,11.579-2.725c7.823,0,12.626,2.484,12.626,4.264    C79.044,13.028,75.363,15.049,69.421,15.586z"/>
	</g>
</g>
</svg>