<svg xmlns="http://www.w3.org/2000/svg" xmlns:xlink="http://www.w3.org/1999/xlink" version="1.1" id="Layer_1" x="0px" y="0px" width="50.4px" height="50.4px" viewBox="0 0 50.4 50.4" enable-background="new 0 0 50.4 50.4" xml:space="preserve">
<g id="Layer_2">
</g>
<polygon fill="#000000" points="20.124,14.217 13.18,14.217 13.18,7.273 6.944,7.273 6.944,14.217 0,14.217 0,20.449 6.944,20.449   6.944,27.397 13.18,27.397 13.18,20.449 20.124,20.449 "/>
<path d="M42.127,10.435V7.273H31.888v3.162h-8.133v33.798h0.053l11.127-0.001v-6.381h4.308v6.381L50.4,44.231l0.005-33.796H42.127z   M35.338,31.775h-5.227v-5.228h5.227V31.775z M35.338,22.936h-5.227V17.71h5.227V22.936z M44.05,31.775h-5.227v-5.228h5.227V31.775z   M44.05,22.936h-5.227V17.71h5.227V22.936z"/>
</svg>