<svg xmlns="http://www.w3.org/2000/svg" xmlns:xlink="http://www.w3.org/1999/xlink" version="1.1" id="Layer_1" x="0px" y="0px" width="100px" height="100px" viewBox="0 0 100 100" enable-background="new 0 0 100 100" xml:space="preserve">
<path d="M0,68.613v-4.81c0.679-0.257,1.219-0.482,1.689-0.634C3.7,62.523,3.437,60.8,3.437,60.8v-7.256v-6.393v-7.256  c0,0,0.263-1.724-1.748-2.37c-0.47-0.151-1.01-0.376-1.688-0.634c0,0,0-4.894,0-4.893c0.695-0.362,0.575-0.907,0.575-1.275  c0-0.367,0.12-0.912-0.574-1.273L0,29.449v-3.229h100v3.229l-0.002,0.001c-0.693,0.361-0.573,0.906-0.573,1.273  c0,0.368-0.119,0.913,0.575,1.274v4.949h-0.001c-0.612,0.233-1.108,0.438-1.544,0.578c-2.012,0.646-1.749,2.37-1.749,2.37v7.256  v6.393V60.8c0,0-0.263,1.724,1.749,2.37c0.436,0.141,0.933,0.345,1.545,0.579v4.864h-0.002c-0.693,0.362-0.573,0.906-0.573,1.273  s-0.122,0.911,0.57,1.272H100v2.954H0v-2.954h0.005c0.692-0.361,0.57-0.905,0.57-1.272s0.12-0.911-0.574-1.273H0z M53.819,53.544  V60.8c0,0-0.264,1.724,1.748,2.37s5.316,2.658,15.302,2.658s14.583,0,14.583,0s3.844,0.144,3.844-2.694c0-3.412,0-9.159,0-17.349  v-2.944c0,0,0-2.442,0-5.28c0-2.837-3.844-2.693-3.844-2.693s-4.598,0-14.583,0s-13.29,2.012-15.302,2.658s-1.748,2.37-1.748,2.37  v7.256V53.544z M46.181,47.151v-7.256c0,0,0.264-1.724-1.748-2.37s-5.315-2.658-15.302-2.658c-9.985,0-14.583,0-14.583,0  s-3.843-0.144-3.843,2.693c0,3.413,0,9.16,0,17.35v2.944c0,0,0,2.442,0,5.279c0,2.838,3.844,2.694,3.844,2.694s4.598,0,14.583,0  c9.986,0,13.29-2.012,15.302-2.658s1.748-2.37,1.748-2.37v-7.256V47.151z"/>
</svg>