<svg xmlns="http://www.w3.org/2000/svg" xmlns:xlink="http://www.w3.org/1999/xlink" version="1.1" x="0px" y="0px" width="100px" height="100px" viewBox="0 0 100 100" enable-background="new 0 0 100 100" xml:space="preserve">
<g id="Captions">
</g>
<g id="Your_Icon">
	<path d="M94.136,73.628l-6.327-13.71c-0.016-0.032-0.045-0.082-0.064-0.11c-0.032-0.057-0.065-0.108-0.104-0.163   c-0.061-0.084-0.125-0.155-0.161-0.185c-0.023-0.032-0.08-0.094-0.111-0.119L70.935,45.722c-0.021-0.028-0.064-0.072-0.093-0.096   l-24.47-20.295c-0.271-0.224-0.607-0.347-0.948-0.347H26.772c-0.018,0-0.034,0.001-0.052,0.002   c-0.115,0.003-0.219,0.018-0.305,0.042c-0.043,0.01-0.085,0.025-0.085,0.029c-0.017,0.005-0.105,0.04-0.119,0.046   c-0.109,0.045-0.211,0.103-0.295,0.164c-0.017,0.01-0.073,0.051-0.087,0.063c-0.109,0.089-0.206,0.195-0.291,0.313   c-0.007,0.008-0.065,0.107-0.069,0.115c-0.032,0.05-0.063,0.102-0.09,0.16l-5.736,12.78h-7.108c-0.012,0-0.024,0-0.036,0.001   c-0.109,0.003-0.219,0.017-0.321,0.043c-0.061,0.014-0.114,0.039-0.071,0.025c-0.025,0.008-0.112,0.04-0.131,0.049   c-0.11,0.046-0.212,0.104-0.297,0.165l0.276,0.437l-0.363-0.373c-0.112,0.092-0.212,0.198-0.293,0.317   c-0.005,0.006-0.063,0.103-0.067,0.108c-0.032,0.052-0.064,0.105-0.089,0.161L5.153,52.975c-0.314,0.699-0.134,1.522,0.438,2.003   l24.713,20.721c0.09,0.064,0.187,0.121,0.32,0.182c0.017,0.008,0.08,0.034,0.099,0.04c0.159,0.054,0.312,0.08,0.464,0.08H92.75   c0.544,0,1.051-0.308,1.326-0.802C94.346,74.718,94.368,74.131,94.136,73.628z M35.254,61.136l-4.645,10.643L8.472,53.207   l4.632-10.316L35.254,61.136z M77.184,58.993l-2.938-6.367l7.676,6.367H77.184z M90.271,72.71H64.372l4.551-10.424l16.534-0.004   L90.271,72.71z M37.703,58.993L17.057,41.987h3.636l20.27,17.006H37.703z M51.94,45.279L31.295,28.273h13.598l18.999,15.759   c0.017,0.017,0.032,0.032,0.051,0.048l1.444,1.199H51.94z M73.421,58.993c-0.022,0-0.043,0.001-0.064,0.004H50.743   c-0.022-0.003-0.043-0.004-0.065-0.004h-2.831l4.552-10.425h16.533l4.811,10.425H73.421z M49.492,47.421l-4.646,10.643   L22.71,39.493l4.632-10.316L49.492,47.421z M38.16,62.282h7.2c0.022,0.003,0.043,0.004,0.063,0.004h9.271l4.812,10.424H33.606   L38.16,62.282z M65.517,62.286l-3.588,8.218l-3.793-8.218H65.517z M25.906,26.036L25.906,26.036L25.906,26.036L25.906,26.036z    M11.67,39.749C11.67,39.749,11.67,39.749,11.67,39.749l-0.002-0.001L11.67,39.749z"/>
</g>
</svg>