<svg xmlns="http://www.w3.org/2000/svg" xmlns:xlink="http://www.w3.org/1999/xlink" version="1.1" x="0px" y="0px" width="100px" height="100px" viewBox="0 0 100 100" enable-background="new 0 0 100 100" xml:space="preserve">
<g id="Your_Icon">
</g>
<g id="Calque_1">
	<circle cx="17.607" cy="32.858" r="10.338"/>
	<g>
		<polygon fill="none" points="73.932,30.317 65.363,39.992 66.705,39.992 74.688,30.99   "/>
		<path d="M66.705,39.992h-1.342l-5.067,5.755c-1.877-1.151-4.358-0.833-5.864,0.875l-9.804,11.041l-9.874-10.93    c-0.668-0.733-1.521-1.192-2.422-1.391v-0.005h-0.036c-0.613-0.13-1.244-0.127-1.861-0.007l-7.302-0.021h-2.22h-9.05    c-3.919,0.588-5.884,2.547-5.884,5.885l-0.182,5.256v26.787c0,2.921,2.199,6.259,5.917,6.259V100h20.619V89.495V57.819    l8.644,9.566c1.089,1.198,2.666,1.685,4.153,1.442c1.222-0.042,2.425-0.559,3.298-1.547l12.927-14.558    c1.636-1.856,1.496-4.652-0.263-6.355L66.705,39.992z"/>
		<path d="M38.159,3.167v36.825h27.204l8.568-9.674l0.757,0.672l-7.983,9.002h27.904V3.167H38.159z M87.343,28.048H45.427V26.27    h41.916V28.048z M87.343,20.251H45.427v-1.778h41.916V20.251z M87.343,12.454H45.427v-1.778h41.916V12.454z"/>
	</g>
</g>
</svg>