<svg xmlns="http://www.w3.org/2000/svg" xmlns:xlink="http://www.w3.org/1999/xlink" version="1.1" x="0px" y="0px" width="100px" height="100px" viewBox="0 0 100 100" enable-background="new 0 0 100 100" xml:space="preserve">
<g id="Captions">
</g>
<g id="Your_Icon">
	<g>
		<g>
			<path d="M79.678,84.184h-2.289l0.177-10.055l-18.959-2.822l-0.46-4.236l-0.112-1.383H33.783l-0.119,1.35L31,90h50.367     L79.678,84.184z M56.417,77.107l-8.364-3.678l7.543-3.248L56.417,77.107z M53.879,77.766H37.98l7.967-3.43L53.879,77.766z      M53.751,69.062l-7.826,3.43l-7.802-3.43H53.751z M36.431,70.221l7.389,3.195l-8.195,3.592L36.431,70.221z M34.731,84.203     l0.232-1.484h22.48l0.183,1.516L34.731,84.203z M58.927,84.352L58.46,84.35h0.467V84.352z"/>
		</g>
	</g>
	<g>
		<g>
			<path d="M36.477,34.589l-1.105,12.876h21.184l-1.032-12.904l-0.178-2.356H36.668L36.477,34.589z M39.999,44.305l5.999-3.42     l5.985,3.42H39.999z M53.422,43.39l-5.825-3.418l5.078-2.896L53.422,43.39z M51.861,35.603l-5.867,3.428l-5.842-3.428H51.861z      M44.393,39.967l-5.766,3.368l0.74-6.241L44.393,39.967z"/>
		</g>
	</g>
	<g>
		<g>
			<path d="M35.153,49.998l-1.242,14.211h24.002l-1.152-14.156l-0.088-1.107h-21.43L35.153,49.998z M39.012,60.932l6.971-3.441     l6.986,3.441H39.012z M54.918,60.143l-7.08-3.568l6.292-3.107L54.918,60.143z M52.74,52.227l-6.761,3.412l-6.766-3.412H52.74z      M44.121,56.574l-7,3.529l0.784-6.594L44.121,56.574z"/>
		</g>
	</g>
	<g>
		<g>
			<path d="M55.233,30.725l-0.102-1.349l-1.616-13.619l-5.748-0.002v-1.626c0.582-0.076,0.996-0.196,1.025-0.364l0.011-0.089     c0-0.003,0-0.003,0-0.003s0,0,0-0.002V9.904h-5.569v3.69c-0.006,0.026,0.002,0.17,0.002,0.17c0.03,0.168,0.445,0.289,1.031,0.365     v1.627l-5.759,0.006L36.917,29.11l-0.13,1.615H55.233z M40.934,27.495l5.057-3.429l5.064,3.429H40.934z M51.912,26.348     l-4.577-3.195l3.888-2.64L51.912,26.348z M50.879,18.791l-4.895,3.42l-4.896-3.42H50.879z M40.823,20.568l3.816,2.583     l-4.496,3.141L40.823,20.568z"/>
		</g>
	</g>
</g>
</svg>