<svg xmlns="http://www.w3.org/2000/svg" xmlns:xlink="http://www.w3.org/1999/xlink" version="1.1" x="0px" y="0px" width="99.917px" height="59.587px" viewBox="0 0 99.917 59.587" enable-background="new 0 0 99.917 59.587" xml:space="preserve">
<g id="Your_Icon">
</g>
<g id="_x31_col">
	<path d="M96.174,38.827c-4.369-3.158-23.038-14.079-39.141-35.068C55.748,2.044,54.38-0.022,51.471,0c-0.02,0-0.034,0-0.048,0.003   V0c-0.022,0-0.042,0.003-0.062,0.006h-0.02c-3.054,0.128-4.733,2.345-6.538,4.444C30.356,21.774,9.74,35.752,4.185,38.214   c-2.45,1.05-4.196,2.94-4.185,5.302c0.22,4.094,4.127,7.188,10.272,10.096c6.811,3.068,23.178,5.95,41.168,5.976   c8.712,0,17.765-0.695,26.188-2.455c16.309-3.548,21.895-7.168,22.289-12.324C99.856,42.046,97.973,40.155,96.174,38.827z    M93.003,48.589c-1.666,0.958-4.062,1.963-7.278,2.963c0.002-0.034,0.02-0.064,0.02-0.098c0-0.886-0.714-1.601-1.596-1.601   c-0.886,0-1.604,0.715-1.604,1.601c0,0.348,0.136,0.656,0.328,0.922c-1.746,0.468-3.679,0.93-5.836,1.384   c-0.276-0.477-0.771-0.811-1.362-0.811c-0.782,0-1.405,0.579-1.542,1.325c-7.334,1.303-15.12,1.894-22.693,1.894   c-7.192,0.012-14.182-0.495-20.34-1.275c0.295-0.406,0.504-0.882,0.504-1.423c0-1.379-1.12-2.503-2.5-2.503   c-1.379,0-2.501,1.124-2.501,2.503c0,0.287,0.075,0.557,0.165,0.816c-1.278-0.204-2.498-0.419-3.67-0.639   c0.025-0.111,0.067-0.214,0.067-0.334c0-0.889-0.719-1.601-1.601-1.601c-0.78,0-1.403,0.568-1.542,1.312   c-3.625-0.805-6.502-1.68-8.329-2.522C5.851,47.94,3.2,44.688,3.425,43.516c0.006-0.579,0.301-1.301,2.158-2.172   c2.489-1.137,7.128-3.954,12.73-8.011c0.083,0.804,0.738,1.439,1.562,1.439c0.88,0,1.593-0.712,1.593-1.599   c0-0.652-0.393-1.208-0.952-1.459c5.221-3.909,11.099-8.787,16.823-14.318c-0.005,0.059-0.034,0.106-0.034,0.163   c0,1.664,1.337,3.012,3.008,3.012c1.66,0,3.001-1.348,3.001-3.012c0-1.661-1.342-3.005-3.001-3.005   c-0.047,0-0.086,0.024-0.134,0.024c2.498-2.536,4.945-5.179,7.253-7.933c1.863-2.277,3.026-3.293,4.013-3.221h0.077l0.033-0.006   c1.028,0.039,1.14,0.368,2.763,2.425c16.45,21.49,35.78,32.793,39.848,35.749c1.465,1.042,2.393,2.355,2.331,3.214   C96.512,45.536,95.979,46.873,93.003,48.589z M9.562,45.657c-0.88,0-1.599,0.715-1.599,1.595c0,0.883,0.719,1.601,1.599,1.601   c0.886,0,1.598-0.718,1.598-1.601C11.16,46.372,10.448,45.657,9.562,45.657z M12.798,40.155c-0.88,0-1.602,0.715-1.602,1.595   c0,0.886,0.721,1.601,1.602,1.601c0.879,0,1.592-0.715,1.592-1.601C14.39,40.87,13.677,40.155,12.798,40.155z M29.877,45.248   c-0.879,0-1.598,0.715-1.598,1.597c0,0.884,0.719,1.603,1.598,1.603c0.886,0,1.604-0.719,1.604-1.603   C31.481,45.963,30.763,45.248,29.877,45.248z M60.183,40.765c-0.88,0-1.596,0.716-1.596,1.601c0,0.883,0.716,1.599,1.596,1.599   c0.888,0,1.604-0.716,1.604-1.599C61.787,41.48,61.071,40.765,60.183,40.765z M28.379,34.461c0.883,0,1.602-0.719,1.602-1.599   c0-0.883-0.719-1.596-1.602-1.596c-0.882,0-1.598,0.712-1.598,1.596C26.781,33.742,27.497,34.461,28.379,34.461z M27.151,35.73   c0-0.88-0.716-1.599-1.598-1.599c-0.883,0-1.601,0.719-1.601,1.599s0.718,1.598,1.601,1.598   C26.436,37.328,27.151,36.61,27.151,35.73z M29.381,42.947c0-0.88-0.718-1.596-1.604-1.596c-0.88,0-1.598,0.716-1.598,1.596   c0,0.888,0.718,1.604,1.598,1.604C28.664,44.552,29.381,43.835,29.381,42.947z M35.61,33.09c-1.381,0-2.503,1.113-2.503,2.496   c0,1.38,1.122,2.503,2.503,2.503c1.375,0,2.498-1.123,2.498-2.503C38.108,34.204,36.985,33.09,35.61,33.09z M52.117,13.371   c-0.889,0-1.596,0.71-1.596,1.599c0,0.879,0.707,1.596,1.596,1.596c0.883,0,1.595-0.717,1.595-1.596   C53.711,14.082,53,13.371,52.117,13.371z M49.786,9.796c0.883,0,1.596-0.721,1.596-1.601c0-0.885-0.713-1.596-1.596-1.596   c-0.885,0-1.595,0.71-1.595,1.596C48.19,9.075,48.901,9.796,49.786,9.796z M47.224,26.706c-0.883,0-1.596,0.719-1.596,1.595   c0,0.888,0.713,1.604,1.596,1.604s1.599-0.716,1.599-1.604C48.823,27.424,48.107,26.706,47.224,26.706z M48.41,15.771   c-0.88,0-1.595,0.718-1.595,1.601c0,0.885,0.715,1.596,1.595,1.596c0.886,0,1.601-0.71,1.601-1.596   C50.011,16.489,49.296,15.771,48.41,15.771z M33.959,25.227c0-0.883-0.713-1.601-1.595-1.601c-0.877,0-1.596,0.718-1.596,1.601   c0,0.885,0.719,1.599,1.596,1.599C33.246,26.826,33.959,26.112,33.959,25.227z M46.166,34.31c0-0.88-0.713-1.597-1.593-1.597   c-0.885,0-1.598,0.717-1.598,1.597c0,0.887,0.713,1.604,1.598,1.604C45.453,35.913,46.166,35.196,46.166,34.31z M46.222,49.658   c-0.88,0-1.595,0.715-1.595,1.599c0,0.888,0.715,1.598,1.595,1.598c0.883,0,1.599-0.71,1.599-1.598   C47.82,50.373,47.104,49.658,46.222,49.658z M59.326,50.994c-0.88,0-1.596,0.719-1.596,1.599c0,0.883,0.716,1.599,1.596,1.599   c0.882,0,1.598-0.716,1.598-1.599C60.923,51.713,60.208,50.994,59.326,50.994z M18.89,46.745c-0.885,0-1.601,0.716-1.601,1.599   c0,0.886,0.715,1.598,1.601,1.598c0.883,0,1.599-0.712,1.599-1.598C20.488,47.461,19.772,46.745,18.89,46.745z M90.917,44.635   c-0.88,0-1.596,0.719-1.596,1.604c0,0.884,0.716,1.596,1.596,1.596c0.892,0,1.604-0.712,1.604-1.596   C92.521,45.354,91.809,44.635,90.917,44.635z M19.547,40.587c-1.27,0-2.3,1.026-2.3,2.293c0,1.27,1.03,2.301,2.3,2.301   s2.3-1.031,2.3-2.301C21.847,41.613,20.816,40.587,19.547,40.587z"/>
</g>
</svg>