<svg xmlns="http://www.w3.org/2000/svg" xmlns:xlink="http://www.w3.org/1999/xlink" version="1.1" id="Layer_1" x="0px" y="0px" width="100px" height="100px" viewBox="0 0 100 100" enable-background="new 0 0 100 100" xml:space="preserve">
<path d="M92.014,47.36l-8.167-5.783c-0.349-0.245-0.764-0.327-1.179-0.327v-5.537h-0.004l0.004-0.002  c0-14.466-9.427-26.686-22.458-30.976V3.043C60.21,1.914,59.294,1,58.167,1H41.835c-1.129,0-2.043,0.914-2.043,2.043v1.692  c-13.031,4.29-22.458,16.51-22.458,30.976h0.002l-0.002,0.002v5.537c-0.417,0-0.832,0.08-1.179,0.327l-8.169,5.779  c-0.615,0.436-0.94,1.178-0.846,1.924c0.093,0.751,0.592,1.386,1.296,1.653c0.244,0.091,0.489,0.171,0.731,0.263l0.001,6.971H9.168  c0,4.511,3.657,8.169,8.166,8.169C17.334,84.375,31.958,99,50,99s32.668-14.625,32.668-32.664c4.51,0,8.164-3.658,8.164-8.169  v-6.971c0.242-0.092,0.487-0.167,0.73-0.26c0.703-0.271,1.202-0.905,1.298-1.651C92.951,48.534,92.629,47.796,92.014,47.36z   M60.21,9.029c10.739,4.11,18.371,14.496,18.371,26.682l0.002,0.002v6.683c-4.657,1.438-8.949,2.54-14.288,3.201l0.002-5.797  c0-0.541-0.216-1.062-0.599-1.445c-0.384-0.383-0.903-0.599-1.444-0.599H60.21V9.029z M60.21,41.843l-0.002,12.202  c-3.384,0.308-6.786,0.476-10.208,0.476s-6.824-0.168-10.206-0.476l-0.002-12.202H60.21z M52.04,58.562v15.939h-4.079V58.562  c0.679,0.013,1.357,0.044,2.039,0.044C50.683,58.606,51.361,58.575,52.04,58.562z M56.124,5.087v32.669H43.878V5.087H56.124z   M21.419,35.711c0-12.186,7.632-22.571,18.373-26.682v28.727h-2.043c-0.543,0-1.062,0.216-1.445,0.599  c-0.383,0.384-0.599,0.904-0.599,1.445v5.797c-5.338-0.661-9.631-1.763-14.286-3.201v-6.683l-0.004-0.002H21.419z M17.68,45.505  c6.058,1.947,11.166,3.405,18.025,4.206l0.002,3.896c-7.54-0.962-14.955-2.686-22.174-5.168L17.68,45.505z M17.334,62.25  c-2.253,0-4.082-1.827-4.082-4.083l-0.002-5.515c1.354,0.451,2.718,0.858,4.084,1.262V62.25z M78.583,66.333h-0.002v0.003  c0,15.784-12.796,28.582-28.581,28.582S21.419,82.12,21.419,66.336v-0.003V55.02c7.347,1.867,14.849,3.017,22.455,3.412v18.113  c0,1.129,0.914,2.043,2.044,2.043h8.165c1.129,0,2.043-0.914,2.043-2.043V58.432c7.605-0.396,15.108-1.545,22.457-3.412V66.333z   M64.295,53.606v-3.896c6.86-0.801,11.968-2.259,18.025-4.206l4.146,2.934C79.248,50.921,71.833,52.645,64.295,53.606z   M86.75,58.167c0,2.256-1.829,4.083-4.082,4.083v-8.336c1.364-0.403,2.729-0.811,4.082-1.262V58.167z"/>
</svg>