<svg xmlns="http://www.w3.org/2000/svg" xmlns:xlink="http://www.w3.org/1999/xlink" version="1.1" id="Your_Icon_copia" x="0px" y="0px" width="100px" height="100px" viewBox="0 0 100 100" enable-background="new 0 0 100 100" xml:space="preserve">
<g>
	<g>
		<path d="M86.355,97.291h-3.801V90.06h3.801V97.291z M74.96,97.291h-3.8V90.06h3.8V97.291z M63.559,97.291h-3.794V90.06h3.794    V97.291z M52.164,97.291h-3.796V90.06h3.796V97.291z M40.767,97.291h-3.8V90.06h3.8V97.291z M29.372,97.291h-3.801V90.06h3.801    V97.291z M17.977,97.291h-3.794V90.06h3.794V97.291z M4.496,93.581c-1.267-1.561-2.015-3.442-2.182-5.445l7.198-0.598    c0.039,0.555,0.251,1.067,0.597,1.497L4.496,93.581z M95.993,92.915l-5.971-4.064c0.31-0.454,0.473-0.981,0.473-1.546l7.231-0.066    v0.066C97.727,89.32,97.127,91.26,95.993,92.915z M9.506,80.24H2.275v-3.797h7.231V80.24z M97.727,79.638h-7.231v-3.801h7.231    V79.638z M9.506,68.849H2.275v-3.798h7.231V68.849z M97.727,68.239h-7.231v-3.794h7.231V68.239z M9.506,57.45H2.275v-3.801h7.231    V57.45z M97.727,56.844h-7.231v-3.797h7.231V56.844z M9.506,46.052H2.275v-3.8h7.231V46.052z M97.727,45.449h-7.231v-3.8h7.231    V45.449z M9.506,34.653H2.275v-3.8h7.231V34.653z M97.727,34.057h-7.231v-3.801h7.231V34.057z M9.506,23.258H2.275v-3.797h7.231    V23.258z M97.727,22.655h-7.231v-3.8h7.231V22.655z M2.275,11.869v-0.042c0-1.991,0.585-3.913,1.691-5.561l6.001,4.027    c-0.306,0.455-0.461,0.988-0.461,1.534L2.275,11.869z M90.489,11.575c-0.048-0.552-0.261-1.061-0.612-1.488l5.589-4.579    c1.279,1.555,2.049,3.437,2.219,5.437L90.489,11.575z M85.786,9.072h-3.795V1.844h3.795V9.072z M74.391,9.072h-3.794V1.844h3.794    V9.072z M62.995,9.072h-3.8V1.844h3.8V9.072z M51.594,9.072h-3.799V1.844h3.799V9.072z M40.204,9.072H36.4V1.844h3.804V9.072z     M28.808,9.072h-3.803V1.844h3.803V9.072z M17.41,9.072h-3.801V1.844h3.801V9.072z"/>
	</g>
	<g>
		<path d="M64.735,70.66H35.267c-3.506,0-6.358-2.852-6.358-6.361V34.833c0-3.506,2.852-6.358,6.358-6.358h29.469    c3.509,0,6.358,2.852,6.358,6.358v29.466C71.094,67.809,68.244,70.66,64.735,70.66z M35.267,30.387    c-2.452,0-4.446,1.994-4.446,4.446v29.466c0,2.455,1.994,4.449,4.446,4.449h29.469c2.454,0,4.448-1.994,4.448-4.449V34.833    c0-2.452-1.994-4.446-4.448-4.446H35.267z"/>
	</g>
	<path d="M60.474,64.561H39.531c-2.498,0-4.522-2.025-4.522-4.522V39.1c0-2.497,2.024-4.525,4.522-4.525h20.943   c2.491,0,4.516,2.028,4.516,4.525v20.938C64.989,62.535,62.965,64.561,60.474,64.561z"/>
</g>
</svg>