<svg xmlns="http://www.w3.org/2000/svg" xmlns:xlink="http://www.w3.org/1999/xlink" version="1.1" id="Layer_1" x="0px" y="0px" width="20px" height="20px" viewBox="0 0 20 20" enable-background="new 0 0 20 20" xml:space="preserve">
<rect x="-167" y="-33" display="none" fill="#000000" width="198" height="87"/>
<g>
	<path d="M-120.629,31.56l-1.396-12.296l0.972-2.619c0,0-1.708-1.936-1.707-2.012c-0.075,0.006-0.12,0.01-0.12,0.01   s-0.045-0.004-0.12-0.01l-1.948,2.012l0.974,2.619l-1.354,11.926l-0.992,8.721c1.073,0.059,2.212,0.09,3.44,0.09   c1.137,0,2.198-0.027,3.201-0.075L-120.629,31.56z"/>
	<g>
		<path d="M-127.823,25.188l1.517-3.584l-3.033-1.789l1.333-5.066c-4.535,0.465-11.281,2.105-16.492,7.428    c-0.184,3.857,0.184,9.002,1.837,11.208c1.491,1.987,4.031,5.766,15.551,6.492C-127.616,38.465-127.823,25.188-127.823,25.188z"/>
		<path d="M-101.502,22.177c-5.21-5.323-11.958-6.963-16.491-7.428l1.333,5.066l-3.032,1.789l1.516,3.584    c0,0-0.045,0.145-0.126,0.394c-0.039,2.203-0.254,13.072-0.709,14.303c11.627-0.706,14.178-4.506,15.674-6.499    C-101.686,31.179-101.318,26.034-101.502,22.177z"/>
	</g>
	<path fill="none" d="M-114.382-0.311c-0.058,0.014-0.117,0.027-0.176,0.04c0.003,0.025,0.007,0.046,0.009,0.072   C-114.5-0.241-114.444-0.278-114.382-0.311z"/>
	<path d="M-114.549-0.199c-0.002-0.025-0.006-0.046-0.009-0.072c-2.021,0.454-4.766,0.775-8.499,0.775   c-4.123,0-7.028-0.396-9.08-0.933c-0.001,0.023-0.002,0.049-0.003,0.072c-1.113-0.186-1.79,0.236-1.79,0.236   c-0.121,0.06-0.228,0.137-0.308,0.245c-0.351,0.476-0.202,1.512-0.202,2.231c0,1.445,0.874,2.615,1.956,2.636   c1.368,5.234,5.092,8.997,9.484,8.997c4.392,0,8.117-3.763,9.485-8.997c1.083-0.021,1.956-1.192,1.956-2.636   c0-0.719,0.148-1.755-0.202-2.231c-0.107-0.145-0.263-0.234-0.438-0.296l0.001-0.011c0,0-0.633-0.395-1.682-0.252   c-0.163,0.042-0.33,0.083-0.503,0.124C-114.444-0.278-114.5-0.241-114.549-0.199z"/>
	<path d="M-114.382-0.311c0.173-0.041,0.341-0.082,0.503-0.124c-0.092,0.013-0.182,0.022-0.279,0.043   C-114.243-0.373-114.316-0.345-114.382-0.311z"/>
	<path d="M-110.895-6.292c0-6.293-4.842-11.475-10.605-12.291V-20h-0.543h-2h-0.457v1.408c-5.806,0.793-10.794,5.987-10.794,12.299   l-1.696,1.412c0,0,1.063,3.63,13.855,3.63c12.791,0,14.126-3.585,14.126-3.585L-110.895-6.292z"/>
</g>
<g>
	<path d="M-63.294,23.373l-0.931-8.198l0.648-1.746c0,0-1.138-1.291-1.138-1.341c-0.05,0.004-0.08,0.007-0.08,0.007   s-0.03-0.002-0.08-0.007l-1.298,1.341l0.649,1.746l-0.903,7.951l-0.661,5.814c0.715,0.039,1.475,0.06,2.293,0.06   c0.758,0,1.465-0.019,2.134-0.05L-63.294,23.373z"/>
	<g>
		<path d="M-68.09,19.125l1.011-2.389l-2.021-1.193l0.889-3.377c-3.023,0.31-7.521,1.403-10.995,4.952    c-0.123,2.572,0.123,6.001,1.225,7.472c0.994,1.325,2.687,3.844,10.367,4.328C-67.952,27.977-68.09,19.125-68.09,19.125z"/>
		<path d="M-50.543,17.118c-3.474-3.549-7.972-4.642-10.994-4.952l0.888,3.377l-2.021,1.193l1.01,2.389c0,0-0.03,0.096-0.084,0.262    c-0.026,1.469-0.169,8.715-0.473,9.536c7.751-0.471,9.452-3.004,10.449-4.333C-50.666,23.119-50.42,19.689-50.543,17.118z"/>
	</g>
	<path fill="none" d="M-59.13,2.126c-0.039,0.009-0.078,0.018-0.118,0.026c0.002,0.017,0.005,0.031,0.006,0.048   C-59.208,2.172-59.171,2.148-59.13,2.126z"/>
	<path d="M-59.241,2.201c-0.001-0.017-0.004-0.031-0.006-0.048c-1.348,0.303-3.177,0.517-5.666,0.517   c-2.749,0-4.685-0.264-6.053-0.622c-0.001,0.016-0.002,0.032-0.002,0.048c-0.742-0.124-1.193,0.157-1.193,0.157   c-0.081,0.04-0.152,0.091-0.206,0.164c-0.234,0.317-0.134,1.008-0.134,1.488c0,0.963,0.582,1.743,1.304,1.757   c0.912,3.49,3.395,5.998,6.323,5.998c2.928,0,5.411-2.508,6.323-5.998c0.722-0.014,1.304-0.794,1.304-1.757   c0-0.479,0.099-1.17-0.135-1.488c-0.071-0.097-0.175-0.156-0.292-0.198l0.001-0.007c0,0-0.422-0.263-1.122-0.168   c-0.108,0.028-0.22,0.056-0.335,0.083C-59.171,2.148-59.208,2.172-59.241,2.201z"/>
	<path d="M-59.13,2.126c0.116-0.027,0.227-0.055,0.335-0.083c-0.061,0.009-0.121,0.015-0.186,0.029   C-59.037,2.085-59.086,2.104-59.13,2.126z"/>
	<path d="M-56.805-1.862c0-4.195-3.228-7.649-7.07-8.194V-11h-0.362h-1.333h-0.305v0.939c-3.871,0.528-7.196,3.991-7.196,8.199   l-1.131,0.941c0,0,0.709,2.42,9.236,2.42s9.418-2.39,9.418-2.39L-56.805-1.862z"/>
</g>
<g>
	<path d="M-19.814,21.779l-0.698-6.148l0.486-1.309c0,0-0.854-0.968-0.854-1.006c-0.037,0.003-0.06,0.005-0.06,0.005   s-0.022-0.002-0.06-0.005l-0.974,1.006l0.486,1.309l-0.677,5.963l-0.496,4.36C-22.124,25.984-21.554,26-20.94,26   c0.568,0,1.099-0.014,1.601-0.037L-19.814,21.779z"/>
	<g>
		<path d="M-23.411,18.594l0.758-1.792l-1.516-0.895l0.667-2.533c-2.268,0.232-5.641,1.053-8.246,3.714    c-0.092,1.929,0.092,4.501,0.919,5.604c0.746,0.994,2.015,2.883,7.775,3.246C-23.307,25.232-23.411,18.594-23.411,18.594z"/>
		<path d="M-10.25,17.088c-2.605-2.662-5.979-3.482-8.246-3.714l0.666,2.533l-1.516,0.895l0.758,1.792c0,0-0.023,0.072-0.063,0.197    c-0.02,1.102-0.127,6.537-0.355,7.152c5.813-0.354,7.089-2.253,7.837-3.25C-10.342,21.59-10.159,19.017-10.25,17.088z"/>
	</g>
	<path fill="none" d="M-16.691,5.845c-0.029,0.007-0.058,0.013-0.088,0.02c0.001,0.013,0.003,0.023,0.005,0.036   C-16.75,5.879-16.722,5.861-16.691,5.845z"/>
	<path d="M-16.774,5.9c-0.001-0.012-0.003-0.023-0.005-0.036c-1.011,0.227-2.383,0.388-4.249,0.388c-2.062,0-3.514-0.198-4.54-0.466   c-0.001,0.012-0.001,0.024-0.002,0.036c-0.557-0.093-0.895,0.118-0.895,0.118c-0.061,0.03-0.114,0.069-0.154,0.123   c-0.175,0.238-0.101,0.756-0.101,1.116c0,0.722,0.437,1.307,0.978,1.318c0.684,2.617,2.546,4.499,4.742,4.499   c2.196,0,4.059-1.881,4.742-4.499c0.542-0.011,0.979-0.596,0.979-1.318c0-0.36,0.074-0.878-0.101-1.116   c-0.054-0.072-0.131-0.117-0.219-0.148l0-0.005c0,0-0.316-0.198-0.841-0.126c-0.082,0.021-0.165,0.042-0.252,0.062   C-16.722,5.861-16.75,5.879-16.774,5.9z"/>
	<path d="M-16.691,5.845c0.087-0.021,0.17-0.041,0.252-0.062c-0.046,0.006-0.091,0.011-0.14,0.022   C-16.621,5.813-16.658,5.828-16.691,5.845z"/>
	<path d="M-14.947,2.854c0-3.146-2.421-5.737-5.303-6.146V-4h-0.271h-1h-0.229v0.704c-2.903,0.396-5.397,2.994-5.397,6.149   l-0.848,0.706c0,0,0.532,1.815,6.927,1.815s7.063-1.792,7.063-1.792L-14.947,2.854z"/>
</g>
<g>
	<path d="M10.791,17.186l-0.466-4.099l0.324-0.873c0,0-0.569-0.645-0.569-0.67c-0.024,0.002-0.04,0.003-0.04,0.003   s-0.015-0.001-0.04-0.003l-0.649,0.67l0.324,0.873l-0.451,3.976L8.893,19.97C9.25,19.99,9.63,20,10.04,20   c0.379,0,0.733-0.009,1.067-0.025L10.791,17.186z"/>
	<g>
		<path d="M8.392,15.063l0.506-1.195l-1.011-0.596l0.444-1.689c-1.512,0.155-3.761,0.702-5.498,2.477    c-0.061,1.286,0.061,3.001,0.613,3.736c0.497,0.663,1.343,1.922,5.184,2.164C8.461,19.488,8.392,15.063,8.392,15.063z"/>
		<path d="M17.166,14.059c-1.737-1.774-3.986-2.321-5.497-2.477l0.444,1.689l-1.01,0.596l0.505,1.195c0,0-0.016,0.048-0.042,0.131    c-0.013,0.734-0.085,4.357-0.237,4.768c3.875-0.235,4.726-1.502,5.225-2.167C17.105,17.06,17.227,15.345,17.166,14.059z"/>
	</g>
	<path fill="none" d="M12.873,6.563c-0.02,0.005-0.039,0.009-0.059,0.014c0.001,0.008,0.002,0.016,0.003,0.023   C12.833,6.586,12.852,6.574,12.873,6.563z"/>
	<path d="M12.817,6.6c-0.001-0.008-0.002-0.015-0.003-0.023c-0.674,0.151-1.589,0.258-2.833,0.258c-1.374,0-2.343-0.132-3.026-0.311   C6.954,6.532,6.954,6.541,6.953,6.548C6.582,6.486,6.357,6.626,6.357,6.626C6.316,6.647,6.281,6.672,6.254,6.708   C6.137,6.867,6.187,7.212,6.187,7.453c0,0.481,0.291,0.871,0.651,0.878C7.294,10.076,8.536,11.33,10,11.33   c1.464,0,2.706-1.254,3.162-2.999c0.361-0.007,0.652-0.397,0.652-0.878c0-0.24,0.049-0.585-0.067-0.744   C13.71,6.66,13.659,6.63,13.601,6.61l0-0.004c0,0-0.211-0.132-0.561-0.084c-0.055,0.014-0.11,0.027-0.168,0.041   C12.852,6.574,12.833,6.586,12.817,6.6z"/>
	<path d="M12.873,6.563c0.058-0.014,0.113-0.027,0.168-0.041c-0.031,0.004-0.061,0.007-0.093,0.015   C12.919,6.542,12.895,6.552,12.873,6.563z"/>
	<path d="M14.035,4.569c0-2.098-1.614-3.824-3.535-4.097V0h-0.181H9.652H9.5v0.469c-1.935,0.265-3.598,1.996-3.598,4.1L5.336,5.04   c0,0,0.354,1.21,4.618,1.21s4.709-1.195,4.709-1.195L14.035,4.569z"/>
</g>
</svg>