<svg xmlns="http://www.w3.org/2000/svg" xmlns:xlink="http://www.w3.org/1999/xlink" version="1.1" id="Layer_1" x="0px" y="0px" width="100px" height="100px" viewBox="0 0 100 100" enable-background="new 0 0 100 100" xml:space="preserve">
<g>
	<g>
		<g>
			<g>
				<path fill="#000000" d="M40.987,30.179c-0.002,0-0.005,0-0.008,0c-0.259-0.004-0.464-0.218-0.46-0.476l0.011-0.635l-0.529,0.04      l-0.011,0.612c-0.005,0.258-0.221,0.46-0.476,0.459c-0.259-0.004-0.464-0.218-0.459-0.476l0.018-1.037      c0.004-0.242,0.191-0.44,0.433-0.458l1.121-0.085c0.047-0.005,0.099,0,0.148,0.012l0.343,0.086      c0.212,0.052,0.359,0.245,0.355,0.462l-0.019,1.038C41.451,29.975,41.242,30.179,40.987,30.179z"/>
			</g>
			<g>
				<path fill="#000000" d="M35.954,52.138c-0.381,0-0.761-0.058-1.129-0.168c-0.247-0.075-0.387-0.336-0.312-0.584      c0.076-0.247,0.337-0.39,0.583-0.312c0.588,0.18,1.218,0.16,1.792,0.004c0.25-0.066,0.507,0.08,0.574,0.331      c0.067,0.249-0.081,0.507-0.33,0.573C36.751,52.086,36.354,52.138,35.954,52.138z M38.631,50.81      c-0.073,0-0.148-0.017-0.218-0.055c-0.229-0.12-0.315-0.404-0.195-0.632c0.031-0.059,0.06-0.121,0.086-0.184      c0.07-0.139,0.203-0.372,0.41-0.726l0.014-0.814c0.004-0.258,0.218-0.464,0.476-0.46c0.258,0.005,0.465,0.218,0.46,0.477      l-0.016,0.937c-0.001,0.08-0.023,0.159-0.064,0.229c-0.23,0.392-0.375,0.642-0.432,0.751c-0.022,0.058-0.063,0.146-0.107,0.228      C38.961,50.719,38.799,50.81,38.631,50.81z M39.233,46.797c-0.002,0-0.005,0-0.008,0c-0.258-0.004-0.464-0.218-0.459-0.476      l0.036-2.077c0.005-0.258,0.197-0.478,0.476-0.459c0.258,0.004,0.465,0.217,0.46,0.476l-0.037,2.077      C39.697,46.593,39.488,46.797,39.233,46.797z M39.306,42.643c-0.003,0-0.006,0-0.008,0c-0.258-0.004-0.464-0.218-0.459-0.476      l0.036-2.077c0.004-0.259,0.227-0.492,0.476-0.46c0.258,0.004,0.465,0.218,0.46,0.476l-0.037,2.077      C39.769,42.438,39.56,42.643,39.306,42.643z M39.378,38.488c-0.002,0-0.006,0-0.008,0c-0.259-0.005-0.464-0.218-0.459-0.476      l0.036-2.078c0.005-0.258,0.206-0.454,0.476-0.46c0.258,0.004,0.465,0.218,0.46,0.476l-0.037,2.077      C39.842,38.284,39.633,38.488,39.378,38.488z M39.45,34.333c-0.002,0-0.005,0-0.008,0c-0.258-0.004-0.464-0.217-0.46-0.476      l0.036-2.077c0.005-0.258,0.237-0.468,0.477-0.46c0.258,0.005,0.464,0.218,0.46,0.476l-0.037,2.078      C39.914,34.129,39.705,34.333,39.45,34.333z"/>
			</g>
			<g>
				<path fill="#000000" d="M32.916,50.549c-0.019-0.033-0.043-0.081-0.055-0.117c-0.062-0.197-0.107-0.394-0.136-0.59      c-0.011-0.072-0.036-0.126-0.081-0.171c-0.087-0.089-0.135-0.209-0.133-0.334l0.019-1.037c0.004-0.258,0.19-0.467,0.476-0.46      c0.259,0.004,0.464,0.218,0.46,0.476l-0.016,0.868c0.103,0.152,0.17,0.327,0.2,0.521c0.022,0.151,0.057,0.298,0.104,0.447      l-0.434,0.161L32.916,50.549z"/>
			</g>
			<g>
				<path fill="#000000" d="M63.168,52.138c-0.534,0-1.038-0.085-1.502-0.255c-0.242-0.088-0.367-0.356-0.279-0.6      c0.089-0.244,0.358-0.367,0.6-0.279c0.518,0.188,1.127,0.271,1.747,0.136c0.247-0.056,0.501,0.106,0.557,0.359      c0.054,0.252-0.106,0.502-0.359,0.557C63.677,52.11,63.42,52.138,63.168,52.138z M65.606,51.111      c-0.118,0-0.235-0.043-0.327-0.133c-0.186-0.181-0.189-0.477-0.009-0.662c0.321-0.33,0.481-0.735,0.489-1.239l0.006-0.32      c0.005-0.258,0.223-0.456,0.478-0.458c0.259,0.005,0.463,0.218,0.459,0.477l-0.006,0.319c-0.013,0.742-0.268,1.373-0.755,1.874      C65.85,51.062,65.728,51.111,65.606,51.111z M60.405,50.549c-0.187,0-0.362-0.113-0.436-0.297l-0.028-0.077      c-0.078-0.116-0.159-0.307-0.279-0.69c-0.016-0.048-0.022-0.098-0.021-0.149l0.021-1.242c0.004-0.258,0.199-0.474,0.476-0.459      c0.258,0.004,0.464,0.217,0.46,0.476l-0.021,1.165c0.097,0.3,0.141,0.377,0.146,0.385c0.05,0.049,0.05,0.065,0.073,0.13      l0.045,0.118c0.094,0.24-0.023,0.512-0.264,0.608C60.521,50.537,60.463,50.549,60.405,50.549z M66.27,47.197      c-0.003,0-0.005,0-0.008,0c-0.259-0.005-0.464-0.218-0.461-0.477l0.036-2.039c0.004-0.258,0.225-0.463,0.477-0.46      c0.258,0.005,0.464,0.218,0.459,0.476l-0.035,2.039C66.733,46.993,66.524,47.197,66.27,47.197z M33.033,46.736      c-0.003,0-0.006,0-0.008,0c-0.258-0.004-0.464-0.217-0.459-0.476l0.035-2.039c0.004-0.258,0.222-0.456,0.476-0.459      c0.258,0.004,0.465,0.217,0.46,0.476l-0.036,2.039C33.497,46.532,33.288,46.736,33.033,46.736z M60.165,46.532      c-0.003,0-0.005,0-0.009,0c-0.258-0.005-0.463-0.218-0.459-0.476l0.035-2.039c0.004-0.259,0.216-0.444,0.476-0.46      c0.259,0.005,0.464,0.218,0.46,0.476l-0.035,2.039C60.629,46.328,60.421,46.532,60.165,46.532z M66.34,43.12      c-0.003,0-0.005,0-0.008,0c-0.258-0.005-0.464-0.218-0.46-0.476l0.035-2.039c0.004-0.259,0.197-0.476,0.477-0.46      c0.259,0.005,0.464,0.218,0.46,0.477l-0.036,2.038C66.804,42.915,66.596,43.12,66.34,43.12z M33.104,42.659      c-0.002,0-0.006,0-0.008,0c-0.258-0.004-0.464-0.218-0.459-0.476l0.035-2.038c0.004-0.259,0.203-0.444,0.476-0.46      c0.258,0.005,0.465,0.218,0.46,0.476l-0.036,2.038C33.568,42.455,33.359,42.659,33.104,42.659z M60.236,42.455      c-0.003,0-0.005,0-0.008,0c-0.259-0.005-0.465-0.218-0.461-0.477l0.037-2.039c0.005-0.258,0.222-0.472,0.477-0.459      c0.258,0.005,0.465,0.218,0.459,0.477l-0.036,2.039C60.699,42.25,60.49,42.455,60.236,42.455z M66.411,39.042      c-0.003,0-0.005,0-0.008,0c-0.259-0.005-0.464-0.218-0.46-0.476l0.035-2.039c0.005-0.259,0.212-0.446,0.477-0.46      c0.258,0.004,0.464,0.218,0.459,0.476l-0.035,2.039C66.875,38.838,66.666,39.042,66.411,39.042z M33.175,38.582      c-0.002,0-0.005,0-0.008,0c-0.259-0.004-0.464-0.218-0.459-0.476l0.036-2.039c0.005-0.258,0.234-0.483,0.476-0.46      c0.259,0.005,0.465,0.218,0.46,0.476l-0.037,2.039C33.639,38.378,33.43,38.582,33.175,38.582z M60.308,38.377      c-0.003,0-0.005,0-0.008,0c-0.258-0.005-0.464-0.218-0.46-0.476l0.035-2.039c0.004-0.259,0.202-0.47,0.477-0.46      c0.259,0.004,0.464,0.218,0.459,0.476l-0.035,2.039C60.771,38.173,60.563,38.377,60.308,38.377z M66.483,34.965      c-0.004,0-0.006,0-0.009,0c-0.258-0.005-0.464-0.218-0.46-0.476l0.036-2.039c0.004-0.259,0.227-0.458,0.476-0.46      c0.259,0.004,0.464,0.218,0.461,0.476l-0.036,2.039C66.946,34.761,66.738,34.965,66.483,34.965z M33.247,34.505      c-0.002,0-0.005,0-0.008,0c-0.258-0.005-0.464-0.218-0.46-0.476l0.035-2.039c0.005-0.258,0.214-0.472,0.477-0.46      c0.258,0.005,0.464,0.218,0.46,0.477l-0.036,2.039C33.71,34.301,33.501,34.505,33.247,34.505z M60.379,34.3      c-0.003,0-0.005,0-0.008,0c-0.259-0.005-0.464-0.218-0.461-0.476l0.036-2.039c0.004-0.259,0.217-0.482,0.477-0.46      c0.258,0.004,0.464,0.218,0.459,0.476l-0.035,2.039C60.843,34.096,60.634,34.3,60.379,34.3z M66.555,30.888      c-0.004,0-0.006,0-0.009,0c-0.259-0.004-0.464-0.217-0.46-0.476l0.036-2.039c0.004-0.259,0.198-0.471,0.476-0.459      c0.258,0.004,0.464,0.217,0.46,0.476l-0.035,2.039C67.018,30.684,66.809,30.888,66.555,30.888z M33.318,30.428      c-0.003,0-0.006,0-0.008,0c-0.258-0.005-0.464-0.218-0.459-0.476l0.035-2.039c0.004-0.259,0.194-0.46,0.476-0.46      c0.258,0.004,0.465,0.218,0.46,0.476l-0.036,2.039C33.782,30.224,33.573,30.428,33.318,30.428z M66.625,26.811      c-0.003,0-0.007,0-0.009,0c-0.259-0.004-0.465-0.218-0.459-0.477l0.003-0.268c-0.001-0.529-0.074-1.075-0.22-1.623      c-0.066-0.25,0.083-0.506,0.333-0.572c0.254-0.069,0.507,0.083,0.572,0.333c0.165,0.625,0.249,1.251,0.25,1.86l-0.003,0.286      C67.088,26.607,66.879,26.811,66.625,26.811z M33.389,26.351c-0.002,0-0.006,0-0.009,0c-0.258-0.005-0.464-0.218-0.459-0.477      l0.002-0.137c0.135-0.608,0.242-1.118,0.336-1.626c0.023-0.119,0.05-0.237,0.084-0.354c0.071-0.248,0.329-0.396,0.58-0.32      c0.249,0.072,0.391,0.331,0.32,0.579c-0.025,0.087-0.046,0.175-0.062,0.264c-0.098,0.525-0.209,1.05-0.334,1.575l0.01,0.037      C33.853,26.147,33.644,26.351,33.389,26.351z M65.645,22.901c-0.169,0-0.33-0.091-0.414-0.25      c-0.301-0.572-0.664-1.115-1.076-1.612c-0.165-0.199-0.137-0.494,0.062-0.659c0.199-0.166,0.493-0.138,0.66,0.061      c0.453,0.547,0.852,1.145,1.183,1.773c0.121,0.229,0.032,0.513-0.196,0.633C65.794,22.884,65.718,22.901,65.645,22.901z       M34.712,22.544c-0.076,0-0.154-0.019-0.226-0.058c-0.227-0.125-0.309-0.41-0.183-0.636c0.327-0.591,0.749-1.176,1.255-1.736      c0.173-0.191,0.47-0.206,0.661-0.034c0.192,0.173,0.207,0.47,0.034,0.661c-0.458,0.507-0.838,1.032-1.13,1.561      C35.037,22.457,34.877,22.544,34.712,22.544z M63.071,19.773c-0.104,0-0.209-0.034-0.296-0.105      c-0.441-0.359-0.914-0.684-1.409-0.964c-0.069-0.04-0.136-0.076-0.203-0.11c-0.23-0.118-0.321-0.4-0.203-0.63      c0.119-0.229,0.403-0.319,0.63-0.202c0.081,0.042,0.162,0.084,0.241,0.13c0.537,0.305,1.056,0.659,1.536,1.052      c0.201,0.163,0.23,0.458,0.066,0.659C63.341,19.714,63.207,19.773,63.071,19.773z M37.397,19.51      c-0.139,0-0.276-0.061-0.368-0.178c-0.16-0.204-0.125-0.498,0.078-0.658c0.597-0.47,1.216-0.846,1.841-1.117      c0.238-0.103,0.514,0.007,0.616,0.244c0.103,0.237-0.006,0.513-0.244,0.616c-0.55,0.238-1.1,0.573-1.634,0.993      C37.601,19.478,37.499,19.51,37.397,19.51z M59.45,18.01c-0.023,0-0.047-0.002-0.07-0.005c-0.259-0.039-0.52-0.059-0.783-0.059      h-1.183c-0.259,0-0.468-0.209-0.468-0.468s0.209-0.468,0.468-0.468h1.183c0.311,0,0.617,0.023,0.921,0.069      c0.256,0.038,0.433,0.276,0.394,0.531C59.877,17.843,59.678,18.01,59.45,18.01z M41.103,17.962      c-0.242,0-0.448-0.187-0.466-0.432c-0.02-0.258,0.173-0.483,0.431-0.502c0.159-0.012,0.338-0.015,0.479-0.018h1.595      c0.258,0,0.468,0.21,0.468,0.468s-0.209,0.468-0.468,0.468h-1.597c-0.137-0.004-0.272,0.005-0.407,0.015      C41.126,17.962,41.114,17.962,41.103,17.962z M55.375,17.946h-2.038c-0.259,0-0.468-0.209-0.468-0.468s0.209-0.468,0.468-0.468      h2.038c0.258,0,0.468,0.21,0.468,0.468S55.633,17.946,55.375,17.946z M51.298,17.946h-2.04c-0.258,0-0.468-0.209-0.468-0.468      S49,17.01,49.258,17.01h2.04c0.258,0,0.468,0.21,0.468,0.468S51.556,17.946,51.298,17.946z M47.22,17.946h-2.039      c-0.258,0-0.468-0.209-0.468-0.468s0.21-0.468,0.468-0.468h2.039c0.258,0,0.468,0.21,0.468,0.468S47.478,17.946,47.22,17.946z"/>
			</g>
			<g>
				<path fill="#000000" d="M60.449,30.179c-0.003,0-0.005,0-0.008,0c-0.258-0.004-0.464-0.218-0.46-0.476l0.011-0.561h-0.441      l-0.01,0.578c-0.004,0.259-0.239,0.464-0.477,0.459c-0.258-0.004-0.464-0.218-0.459-0.476l0.019-1.037      c0.003-0.255,0.212-0.46,0.468-0.46h1.376c0.126,0,0.247,0.051,0.335,0.14c0.087,0.09,0.136,0.211,0.134,0.336l-0.02,1.038      C60.913,29.975,60.705,30.179,60.449,30.179z"/>
			</g>
			<g>
				<path fill="#000000" d="M53.909,87.877h-0.063c-0.782,0-1.508-0.173-2.154-0.514c-0.229-0.121-0.317-0.404-0.196-0.632      c0.12-0.229,0.407-0.314,0.632-0.197c0.511,0.271,1.09,0.407,1.719,0.407c0.259,0,0.5,0.209,0.5,0.468      C54.346,87.667,54.167,87.877,53.909,87.877z M55.914,87.411c-0.174,0-0.341-0.098-0.422-0.265      c-0.112-0.233-0.015-0.513,0.218-0.626l0.166-0.085c0.476-0.253,0.852-0.616,1.147-1.108c0.134-0.224,0.424-0.293,0.643-0.16      c0.222,0.134,0.293,0.421,0.16,0.643c-0.381,0.632-0.889,1.121-1.51,1.453l-0.199,0.102      C56.052,87.396,55.982,87.411,55.914,87.411z M50.382,86.045c-0.152,0-0.301-0.074-0.392-0.211      c-0.191-0.291-0.35-0.608-0.472-0.944c-0.143-0.19-0.237-0.467-0.296-0.856v-0.38c0.004-0.255,0.213-0.459,0.468-0.459      c0.002,0,0.005,0,0.008,0c0.258,0.003,0.463,0.217,0.459,0.476l-0.004,0.302c0.046,0.269,0.111,0.354,0.114,0.358      c0.05,0.05,0.084,0.106,0.106,0.174c0.101,0.292,0.234,0.565,0.398,0.815c0.143,0.215,0.082,0.505-0.133,0.647      C50.56,86.019,50.471,86.045,50.382,86.045z M58.132,84.11c-0.003,0-0.005,0-0.008,0c-0.259-0.004-0.464-0.218-0.46-0.477      l0.035-2.074c0.004-0.259,0.225-0.444,0.477-0.459c0.259,0.004,0.464,0.217,0.459,0.476L58.6,83.65      C58.596,83.906,58.387,84.11,58.132,84.11z M49.728,82.056c-0.003,0-0.005,0-0.008,0c-0.258-0.005-0.464-0.219-0.46-0.477      l0.037-2.075c0.004-0.258,0.234-0.455,0.476-0.459c0.258,0.005,0.463,0.217,0.459,0.476l-0.036,2.074      C50.191,81.851,49.982,82.056,49.728,82.056z M58.203,79.962c-0.003,0-0.005,0-0.007,0c-0.259-0.006-0.465-0.219-0.461-0.477      l0.036-2.074c0.005-0.258,0.196-0.473,0.477-0.459c0.259,0.005,0.465,0.217,0.461,0.476l-0.037,2.073      C58.668,79.757,58.459,79.962,58.203,79.962z M49.799,77.907c-0.002,0-0.004,0-0.008,0c-0.258-0.005-0.464-0.219-0.46-0.477      l0.037-2.075c0.004-0.258,0.205-0.439,0.476-0.459c0.258,0.005,0.464,0.218,0.459,0.476l-0.036,2.074      C50.263,77.702,50.055,77.907,49.799,77.907z M58.276,75.813c-0.004,0-0.006,0-0.009,0c-0.259-0.006-0.464-0.219-0.459-0.477      l0.036-2.074c0.004-0.259,0.21-0.457,0.476-0.461c0.258,0.006,0.464,0.219,0.46,0.477l-0.036,2.074      C58.739,75.608,58.531,75.813,58.276,75.813z M49.872,73.758c-0.003,0-0.005,0-0.008,0c-0.258-0.005-0.464-0.218-0.46-0.477      l0.037-2.073c0.003-0.259,0.217-0.469,0.476-0.46c0.258,0.005,0.464,0.218,0.46,0.476l-0.037,2.074      C50.336,73.553,50.127,73.758,49.872,73.758z M58.349,71.665c-0.003,0-0.005,0-0.009,0c-0.258-0.006-0.463-0.218-0.459-0.477      l0.036-2.074c0.004-0.259,0.224-0.441,0.476-0.461c0.259,0.006,0.465,0.219,0.461,0.477l-0.037,2.075      C58.813,71.46,58.604,71.665,58.349,71.665z M49.945,69.609c-0.003,0-0.005,0-0.008,0c-0.258-0.004-0.464-0.218-0.46-0.477      l0.036-2.074c0.003-0.259,0.232-0.452,0.476-0.459c0.259,0.004,0.464,0.217,0.46,0.476l-0.035,2.074      C50.409,69.405,50.2,69.609,49.945,69.609z M58.421,67.516c-0.003,0-0.005,0-0.008,0c-0.259-0.005-0.464-0.218-0.46-0.477      l0.036-2.073c0.004-0.258,0.237-0.469,0.477-0.46c0.257,0.006,0.463,0.218,0.459,0.477l-0.036,2.073      C58.885,67.312,58.676,67.516,58.421,67.516z M50.017,65.462c-0.003,0-0.005,0-0.008,0c-0.259-0.006-0.464-0.219-0.46-0.477      l0.036-2.075c0.004-0.258,0.203-0.48,0.476-0.46c0.259,0.006,0.464,0.218,0.46,0.477l-0.036,2.074      C50.481,65.257,50.272,65.462,50.017,65.462z M58.493,63.368c-0.003,0-0.005,0-0.008,0c-0.258-0.006-0.464-0.219-0.46-0.477      l0.036-2.075c0.004-0.258,0.207-0.452,0.477-0.46c0.259,0.006,0.465,0.219,0.46,0.477l-0.037,2.074      C58.957,63.163,58.749,63.368,58.493,63.368z M50.09,61.312c-0.003,0-0.005,0-0.008,0c-0.259-0.005-0.464-0.218-0.46-0.477      l0.035-2.073c0.004-0.259,0.217-0.466,0.476-0.461c0.258,0.005,0.463,0.219,0.46,0.477l-0.036,2.074      C50.554,61.107,50.345,61.312,50.09,61.312z M58.565,59.22c-0.003,0-0.005,0-0.008,0c-0.259-0.006-0.464-0.218-0.46-0.477      l0.036-2.074c0.005-0.259,0.221-0.481,0.477-0.461c0.258,0.006,0.464,0.219,0.46,0.477l-0.037,2.075      C59.029,59.015,58.82,59.22,58.565,59.22z M50.162,57.164c-0.003,0-0.005,0-0.007,0c-0.259-0.006-0.464-0.218-0.46-0.477      l0.036-2.074c0.004-0.259,0.23-0.449,0.477-0.46c0.258,0.006,0.463,0.218,0.459,0.477l-0.036,2.074      C50.626,56.96,50.417,57.164,50.162,57.164z M58.639,55.069c-0.004,0-0.006,0-0.009,0c-0.258-0.005-0.464-0.217-0.46-0.476      l0.037-2.073c0.004-0.259,0.233-0.466,0.476-0.46c0.259,0.006,0.465,0.218,0.461,0.477l-0.037,2.073      C59.102,54.866,58.894,55.069,58.639,55.069z M58.711,50.922c-0.003,0-0.006,0-0.009,0c-0.259-0.006-0.464-0.218-0.459-0.476      l0.036-2.074c0.004-0.259,0.205-0.451,0.476-0.46c0.258,0.005,0.464,0.218,0.46,0.476l-0.036,2.075      C59.175,50.717,58.966,50.922,58.711,50.922z M58.783,46.773c-0.003,0-0.005,0-0.009,0c-0.257-0.005-0.463-0.218-0.459-0.477      l0.036-2.074c0.004-0.259,0.22-0.478,0.477-0.46c0.259,0.005,0.463,0.218,0.46,0.476l-0.037,2.074      C59.247,46.569,59.039,46.773,58.783,46.773z M58.855,42.625c-0.003,0-0.005,0-0.008,0c-0.259-0.004-0.464-0.217-0.461-0.476      l0.037-2.074c0.004-0.259,0.233-0.462,0.477-0.46c0.258,0.005,0.464,0.218,0.459,0.476l-0.036,2.075      C59.319,42.421,59.11,42.625,58.855,42.625z M58.928,38.476c-0.003,0-0.005,0-0.008,0c-0.258-0.004-0.464-0.218-0.46-0.476      l0.036-2.074c0.005-0.259,0.203-0.447,0.477-0.459c0.259,0.004,0.464,0.217,0.461,0.476l-0.038,2.074      C59.392,38.272,59.184,38.476,58.928,38.476z M59.001,34.328c-0.004,0-0.006,0-0.009,0c-0.259-0.004-0.464-0.218-0.461-0.476      l0.038-2.074c0.004-0.259,0.216-0.474,0.476-0.46c0.258,0.004,0.464,0.218,0.46,0.476l-0.036,2.074      C59.464,34.124,59.255,34.328,59.001,34.328z"/>
			</g>
			<g>
				<path fill="#000000" d="M50.234,53.002c-0.003,0-0.005,0-0.008,0c-0.258-0.006-0.464-0.219-0.46-0.477l0.01-0.561h-0.443      l-0.01,0.577c-0.003,0.257-0.239,0.435-0.476,0.46c-0.259-0.006-0.464-0.219-0.459-0.477l0.018-1.037      c0.004-0.256,0.213-0.459,0.468-0.459h1.378c0.126,0,0.247,0.049,0.335,0.139c0.087,0.091,0.136,0.211,0.133,0.336l-0.019,1.038      C50.698,52.797,50.49,53.002,50.234,53.002z"/>
			</g>
			<g>
				<path fill="#000000" d="M44.139,87.876c-0.258,0-0.467-0.208-0.468-0.465c-0.001-0.259,0.207-0.47,0.465-0.471      c0.597-0.005,1.188-0.164,1.758-0.476c0.229-0.123,0.511-0.038,0.635,0.188c0.124,0.227,0.04,0.511-0.187,0.635      c-0.708,0.386-1.449,0.585-2.201,0.589C44.141,87.876,44.14,87.876,44.139,87.876z M42.136,87.425      c-0.072,0-0.145-0.017-0.214-0.052c-0.178-0.093-0.351-0.195-0.517-0.312c-0.492-0.338-0.886-0.766-1.169-1.268      c-0.127-0.225-0.047-0.51,0.178-0.638c0.225-0.127,0.511-0.048,0.638,0.178c0.212,0.377,0.511,0.699,0.886,0.957      c0.135,0.095,0.272,0.177,0.413,0.248c0.229,0.119,0.32,0.401,0.202,0.631C42.47,87.331,42.306,87.425,42.136,87.425z       M47.688,86.018c-0.095,0-0.19-0.027-0.273-0.088c-0.209-0.152-0.257-0.444-0.105-0.653c0.35-0.485,0.525-1.029,0.537-1.663      c0.004-0.256,0.213-0.466,0.468-0.466c0.001,0,0.003,0,0.004,0c0.257,0.002,0.463,0.205,0.463,0.463v0.012      c-0.014,0.827-0.255,1.566-0.714,2.201C47.977,85.95,47.833,86.018,47.688,86.018z M40.047,84.064c-0.003,0-0.006,0-0.008,0      c-0.258-0.004-0.464-0.217-0.46-0.476l0.036-2.071c0.005-0.259,0.207-0.443,0.477-0.46c0.258,0.003,0.464,0.218,0.46,0.476      l-0.036,2.072C40.51,83.86,40.302,84.064,40.047,84.064z M48.35,82.007c-0.002,0-0.005,0-0.007,0      c-0.258-0.004-0.465-0.218-0.46-0.476l0.037-2.072c0.004-0.258,0.188-0.443,0.476-0.46c0.258,0.004,0.464,0.218,0.459,0.477      l-0.036,2.07C48.814,81.802,48.605,82.007,48.35,82.007z M40.12,79.921c-0.002,0-0.006,0-0.008,0      c-0.258-0.004-0.464-0.217-0.46-0.476l0.036-2.072c0.004-0.259,0.185-0.467,0.476-0.46c0.258,0.005,0.464,0.218,0.46,0.477      l-0.036,2.072C40.583,79.718,40.374,79.921,40.12,79.921z M48.422,77.862c-0.002,0-0.005,0-0.008,0      c-0.259-0.005-0.465-0.218-0.46-0.476l0.037-2.072c0.004-0.259,0.218-0.467,0.476-0.46c0.259,0.006,0.465,0.218,0.46,0.477      l-0.036,2.071C48.886,77.657,48.677,77.862,48.422,77.862z M40.191,75.778c-0.002,0-0.005,0-0.008,0      c-0.259-0.006-0.464-0.219-0.459-0.477l0.036-2.072c0.005-0.258,0.216-0.491,0.476-0.459c0.259,0.005,0.464,0.217,0.46,0.476      l-0.037,2.071C40.655,75.574,40.446,75.778,40.191,75.778z M48.495,73.72c-0.002,0-0.005,0-0.008,0      c-0.258-0.005-0.465-0.219-0.46-0.477l0.036-2.072c0.005-0.258,0.198-0.491,0.477-0.459c0.258,0.004,0.464,0.218,0.46,0.476      l-0.036,2.072C48.958,73.515,48.75,73.72,48.495,73.72z M40.264,71.635c-0.003,0-0.006,0-0.008,0      c-0.259-0.005-0.464-0.219-0.46-0.477l0.037-2.073c0.004-0.258,0.195-0.464,0.476-0.459c0.259,0.005,0.464,0.217,0.46,0.476      l-0.037,2.072C40.727,71.43,40.519,71.635,40.264,71.635z M48.567,69.576c-0.003,0-0.006,0-0.008,0      c-0.259-0.004-0.465-0.218-0.46-0.477l0.036-2.072c0.004-0.259,0.229-0.466,0.476-0.46c0.259,0.004,0.464,0.218,0.46,0.476      l-0.036,2.073C49.031,69.371,48.822,69.576,48.567,69.576z M40.336,67.49c-0.002,0-0.006,0-0.008,0      c-0.258-0.004-0.464-0.217-0.46-0.476l0.036-2.071c0.004-0.259,0.226-0.491,0.476-0.461c0.258,0.004,0.464,0.219,0.459,0.477      l-0.036,2.071C40.8,67.285,40.591,67.49,40.336,67.49z M48.639,65.432c-0.002,0-0.005,0-0.008,0      c-0.259-0.005-0.465-0.218-0.46-0.477l0.036-2.07c0.005-0.259,0.208-0.491,0.476-0.46c0.259,0.004,0.464,0.218,0.46,0.476      l-0.036,2.071C49.103,65.229,48.894,65.432,48.639,65.432z M40.409,63.347c-0.002,0-0.005,0-0.008,0      c-0.258-0.004-0.464-0.217-0.46-0.476l0.036-2.071c0.005-0.259,0.205-0.464,0.476-0.461c0.258,0.005,0.464,0.219,0.46,0.477      l-0.036,2.072C40.872,63.143,40.664,63.347,40.409,63.347z M48.711,61.288c-0.002,0-0.005,0-0.008,0      c-0.259-0.003-0.464-0.217-0.46-0.476l0.036-2.072c0.005-0.258,0.188-0.463,0.476-0.46c0.258,0.004,0.464,0.218,0.46,0.477      l-0.037,2.072C49.175,61.084,48.967,61.288,48.711,61.288z M40.481,59.203c-0.003,0-0.006,0-0.008,0      c-0.259-0.006-0.465-0.218-0.46-0.477l0.037-2.071c0.004-0.259,0.235-0.487,0.476-0.459c0.259,0.005,0.464,0.217,0.459,0.476      l-0.036,2.071C40.944,58.999,40.735,59.203,40.481,59.203z M48.784,57.145c-0.003,0-0.006,0-0.008,0      c-0.259-0.004-0.465-0.218-0.46-0.476l0.036-2.072c0.004-0.257,0.218-0.486,0.476-0.46c0.258,0.005,0.465,0.218,0.459,0.477      l-0.036,2.071C49.248,56.94,49.039,57.145,48.784,57.145z M40.553,55.061c-0.002,0-0.006,0-0.008,0      c-0.259-0.005-0.465-0.219-0.46-0.477l0.037-2.072c0.005-0.259,0.215-0.46,0.476-0.459c0.259,0.005,0.464,0.217,0.459,0.476      L41.021,54.6C41.017,54.855,40.808,55.061,40.553,55.061z M40.625,50.916c-0.002,0-0.005,0-0.007,0      c-0.258-0.004-0.465-0.219-0.46-0.477l0.036-2.071c0.005-0.258,0.194-0.485,0.477-0.46c0.258,0.004,0.464,0.218,0.459,0.476      l-0.036,2.072C41.089,50.711,40.88,50.916,40.625,50.916z M40.698,46.772c-0.002,0-0.006,0-0.008,0      c-0.258-0.004-0.465-0.218-0.46-0.476l0.036-2.071c0.004-0.258,0.224-0.459,0.476-0.46c0.258,0.005,0.464,0.218,0.459,0.477      l-0.036,2.071C41.161,46.568,40.953,46.772,40.698,46.772z M40.77,42.629c-0.002,0-0.005,0-0.008,0      c-0.258-0.005-0.464-0.218-0.46-0.476l0.036-2.072c0.004-0.258,0.204-0.483,0.476-0.459c0.258,0.004,0.464,0.218,0.46,0.476      l-0.036,2.072C41.234,42.425,41.025,42.629,40.77,42.629z M40.842,38.485c-0.002,0-0.005,0-0.008,0      c-0.259-0.004-0.465-0.218-0.46-0.476l0.037-2.072c0.004-0.258,0.234-0.457,0.476-0.46c0.259,0.005,0.464,0.218,0.46,0.476      l-0.036,2.072C41.306,38.281,41.097,38.485,40.842,38.485z M40.915,34.342c-0.002,0-0.005,0-0.008,0      c-0.259-0.005-0.465-0.218-0.46-0.476l0.037-2.072c0.004-0.258,0.213-0.481,0.476-0.459c0.259,0.004,0.465,0.217,0.46,0.476      l-0.036,2.071C41.378,34.138,41.169,34.342,40.915,34.342z"/>
			</g>
		</g>
		<g>
			<path fill="#000000" d="M50.272,16.396c-0.36,0-0.711-0.021-1.051-0.062c-0.257-0.032-0.439-0.265-0.408-0.521     s0.273-0.44,0.521-0.408c0.62,0.076,1.292,0.075,1.91-0.006c0.26-0.038,0.49,0.147,0.524,0.404     c0.033,0.256-0.146,0.491-0.403,0.524C51.014,16.373,50.646,16.396,50.272,16.396z M47.324,15.803     c-0.064,0-0.128-0.012-0.19-0.04c-0.652-0.29-1.264-0.685-1.82-1.174c-0.194-0.171-0.213-0.466-0.042-0.661     c0.171-0.194,0.467-0.212,0.661-0.042c0.485,0.427,1.017,0.77,1.583,1.022c0.236,0.104,0.342,0.381,0.237,0.618     C47.674,15.7,47.503,15.803,47.324,15.803z M53.254,15.779c-0.178,0-0.348-0.102-0.426-0.273     c-0.107-0.235-0.004-0.514,0.231-0.621c0.56-0.256,1.091-0.604,1.575-1.035c0.193-0.17,0.488-0.155,0.662,0.04     c0.171,0.193,0.152,0.489-0.04,0.66c-0.556,0.493-1.165,0.892-1.81,1.187C53.386,15.766,53.318,15.779,53.254,15.779z      M44.3,13.173c-0.155,0-0.306-0.076-0.395-0.216c-0.392-0.611-0.685-1.279-0.872-1.985c-0.066-0.25,0.083-0.506,0.333-0.572     c0.25-0.066,0.506,0.083,0.572,0.332c0.163,0.612,0.417,1.19,0.755,1.721c0.139,0.218,0.076,0.507-0.142,0.646     C44.474,13.149,44.386,13.173,44.3,13.173z M56.276,13.141c-0.089,0-0.179-0.025-0.26-0.078     c-0.215-0.143-0.273-0.434-0.131-0.649c0.354-0.532,0.625-1.107,0.809-1.708c0.077-0.246,0.333-0.385,0.585-0.311     c0.247,0.076,0.386,0.337,0.311,0.584c-0.209,0.688-0.521,1.346-0.924,1.953C56.576,13.068,56.428,13.141,56.276,13.141z      M43.247,9.278c-0.001,0-0.002,0-0.004,0c-0.256-0.002-0.463-0.182-0.463-0.438c0-0.004,0-0.067,0-0.071     c0.012-0.737,0.125-1.455,0.333-2.128c0.077-0.247,0.338-0.385,0.585-0.309c0.248,0.077,0.386,0.339,0.309,0.585     c-0.182,0.589-0.281,1.219-0.292,1.871C43.71,9.044,43.502,9.278,43.247,9.278z M57.458,8.842l-0.467-0.023l0.001-0.163     c-0.001-0.591-0.076-1.164-0.223-1.702c-0.067-0.25,0.079-0.507,0.328-0.575c0.251-0.069,0.508,0.079,0.576,0.329     c0.167,0.618,0.253,1.273,0.255,1.948l-0.002,0.136L57.458,8.842z M56.397,5.449c-0.154,0-0.306-0.077-0.395-0.218l-0.072-0.11     c-0.339-0.506-0.726-0.958-1.153-1.342c-0.191-0.173-0.207-0.469-0.034-0.661c0.174-0.191,0.47-0.207,0.66-0.035     c0.485,0.438,0.925,0.949,1.306,1.519l0.084,0.129c0.139,0.218,0.074,0.508-0.146,0.646C56.57,5.426,56.484,5.449,56.397,5.449z      M44.441,5.391c-0.086,0-0.172-0.023-0.246-0.073c-0.212-0.146-0.285-0.41-0.141-0.623c0-0.001,0.015-0.021,0.015-0.022     c0.422-0.611,0.891-1.132,1.417-1.583c0.196-0.168,0.491-0.146,0.66,0.05c0.169,0.196,0.146,0.492-0.05,0.66     c-0.465,0.4-0.88,0.861-1.233,1.372C44.767,5.31,44.603,5.391,44.441,5.391z M47.482,2.794c-0.171,0-0.336-0.094-0.418-0.257     c-0.117-0.231-0.024-0.512,0.207-0.629l0.197-0.097c0.252-0.125,0.558-0.237,0.901-0.33c0.353-0.096,0.699-0.146,1.028-0.146     c0.258,0,0.482,0.209,0.482,0.468s-0.196,0.468-0.454,0.468c-0.273,0-0.537,0.038-0.812,0.112     c-0.285,0.078-0.533,0.168-0.739,0.271l-0.183,0.089C47.625,2.778,47.553,2.794,47.482,2.794z M53.409,2.771     c-0.069,0-0.14-0.016-0.205-0.047l-0.133-0.063c-0.217-0.108-0.462-0.199-0.743-0.276c-0.271-0.074-0.533-0.112-0.778-0.112     c-0.258,0-0.513-0.21-0.513-0.468s0.164-0.468,0.422-0.468h0.091c0.327,0,0.673,0.049,1.027,0.146     c0.339,0.093,0.641,0.206,0.899,0.334l0.139,0.065c0.231,0.113,0.328,0.394,0.214,0.626C53.749,2.675,53.583,2.771,53.409,2.771z     "/>
		</g>
	</g>
</g>
<ellipse fill="#000000" cx="48.805" cy="94.85" rx="12.708" ry="3.813"/>
</svg>