<svg xmlns="http://www.w3.org/2000/svg" xmlns:xlink="http://www.w3.org/1999/xlink" version="1.1" id="Your_Icon" x="0px" y="0px" width="100px" height="100px" viewBox="0 0 100 100" enable-background="new 0 0 100 100" xml:space="preserve">
<path d="M0,70.221C16.985,59.605,16.986,40.396,0,29.78c1.256-0.784,6.539-5.104,7.68-4.392c2.985,1.865,5.97,3.731,8.955,5.597  c7.2,4.5,14.4,9.001,21.602,13.501c-3.522,2.201-5.913,5.495-9.602,3.19c-4.603-2.877-9.206-5.754-13.809-8.63  c4.085,6.872,4.085,15.036,0,21.909C32.05,50.19,49.273,39.425,66.498,28.661c-10.808,2.312-22.188,2.312-32.994,0  c5.009,3.13,10.018,6.261,15.026,9.391c-1.255,0.785-6.539,5.105-7.68,4.392c-2.985-1.865-5.97-3.73-8.954-5.596  c-7.201-4.501-14.401-9.001-21.602-13.501c1.676-1.047,3.351-2.095,5.026-3.142c3.448-2.155,4.783,0.152,8.425,1.751  c8.219,3.607,17.309,5.171,26.255,5.171c8.945,0,18.035-1.563,26.254-5.171c2.224-0.977,5.069-3.849,7.247-2.487  c2.068,1.293,4.137,2.585,6.204,3.878c-15.592,9.745-31.184,19.49-46.775,29.234c-9.467,5.918-18.934,11.834-28.399,17.75  c-2.228,1.393-4.455,2.785-6.683,4.178C6.35,75.445,1.478,71.145,0,70.221 M100,70.221c-1.255,0.785-6.538,5.105-7.679,4.393  c-2.985-1.867-5.97-3.732-8.955-5.598c-7.2-4.5-14.4-9-21.602-13.5c3.522-2.201,5.913-5.496,9.602-3.191  c4.603,2.877,9.205,5.754,13.809,8.631c-4.085-6.873-4.085-15.037,0-21.909C67.951,49.811,50.728,60.576,33.504,71.34  c10.807-2.311,22.187-2.311,32.994,0c-5.01-3.131-10.018-6.26-15.027-9.391c1.256-0.785,6.539-5.105,7.68-4.393  c2.985,1.867,5.97,3.732,8.954,5.598c7.201,4.5,14.401,9,21.602,13.5c-1.675,1.047-3.351,2.094-5.026,3.143  c-3.448,2.154-4.783-0.154-8.425-1.752c-8.219-3.607-17.309-5.17-26.254-5.17c-8.946,0-18.036,1.562-26.255,5.17  c-2.224,0.977-5.069,3.848-7.247,2.486c-2.068-1.291-4.137-2.584-6.204-3.877c15.592-9.744,31.184-19.49,46.775-29.235  c9.467-5.916,18.934-11.833,28.4-17.749c2.227-1.393,4.454-2.784,6.682-4.177c1.5-0.938,6.371,3.363,7.848,4.286  C83.016,40.396,83.016,59.605,100,70.221z"/>
</svg>