<svg xmlns="http://www.w3.org/2000/svg" xmlns:xlink="http://www.w3.org/1999/xlink" version="1.1" id="Layer_1" x="0px" y="0px" width="100px" height="100px" viewBox="0 0 100 100" enable-background="new 0 0 100 100" xml:space="preserve">
<rect x="7.173" y="23.107" width="86.137" height="4.394"/>
<path d="M32.301,75.759c-4.554,0-8.258,3.703-8.258,8.257s3.704,8.258,8.258,8.258c4.553,0,8.257-3.704,8.257-8.258  S36.854,75.759,32.301,75.759z"/>
<path d="M67.698,75.759c-4.553,0-8.257,3.703-8.257,8.257s3.704,8.258,8.257,8.258c4.554,0,8.258-3.704,8.258-8.258  S72.252,75.759,67.698,75.759z"/>
<path d="M100,75.077H85v-4.372c2.639-0.805,4.573-3.268,4.573-6.162v-4.769v-4.468V28.865H10.909v26.442v4.468v4.769  c0,2.714,1.702,5.045,4.091,5.989v4.545H0v3.333h2.63c-0.035,0.262-0.055,0.542-0.055,0.834v3.673c0,1.417,0.443,2.577,0.985,2.577  c0.541,0,0.984-1.16,0.984-2.577v-3.673c0-0.292-0.02-0.572-0.054-0.834H15v1.212v1.591v1.137h1.666v-1.137h1.305v1.137h1.667  v-1.137h1.493c-0.225,0.897-0.346,1.836-0.346,2.803c0,6.36,5.155,11.516,11.516,11.516c6.359,0,11.515-5.155,11.515-11.516  c0-0.967-0.121-1.906-0.346-2.805c0.001,0.001,0.001,0.002,0.001,0.002h1.442l3.116,2.879v5.682h3.94v-5.682l3.116-2.879h1.442  c-0.224,0.897-0.345,1.836-0.345,2.803c0,6.36,5.155,11.516,11.515,11.516c6.36,0,11.516-5.155,11.516-11.516  c0-0.967-0.121-1.906-0.346-2.805c0,0.001,0,0.002,0,0.002h1.435v1.137h1.666v-1.137h1.363v1.137H85v-1.137v-1.591V78.41h10.508  c-0.034,0.262-0.054,0.542-0.054,0.834v3.673c0,1.417,0.443,2.577,0.984,2.577c0.542,0,0.985-1.16,0.985-2.577v-3.673  c0-0.292-0.021-0.572-0.055-0.834H100V75.077z M17.971,79.622h-1.305v-8.675c0.226,0.024,0.454,0.038,0.686,0.038h0.619V79.622z   M32.301,93.638c-5.306,0-9.621-4.316-9.621-9.622s4.315-9.621,9.621-9.621c5.305,0,9.621,4.315,9.621,9.621  S37.605,93.638,32.301,93.638z M67.698,93.638c-5.305,0-9.62-4.316-9.62-9.622s4.315-9.621,9.62-9.621  c5.306,0,9.622,4.315,9.622,9.621S73.004,93.638,67.698,93.638z M80.303,79.622h-1.959c-1.727-4.179-5.842-7.121-10.646-7.121  c-4.803,0-8.917,2.941-10.645,7.121H42.945c-1.727-4.179-5.842-7.121-10.645-7.121c-4.804,0-8.918,2.941-10.646,7.121h-2.018v-8.637  h60.665V79.622z M83.332,79.622h-1.363v-8.637h1.162c0.068,0,0.134-0.008,0.201-0.01V79.622z"/>
<polygon points="77.413,15.146 72.749,16.694 50.768,4.469 34.509,16.251 29.396,11.478 12.982,20.834 23.568,20.834 46.646,20.834   63.291,20.834 77.969,20.834 88.664,20.834 "/>
</svg>