<svg xmlns="http://www.w3.org/2000/svg" xmlns:xlink="http://www.w3.org/1999/xlink" version="1.1" x="0px" y="0px" width="100px" height="100px" viewBox="0 0 100 100" enable-background="new 0 0 100 100" xml:space="preserve">
<g id="Captions">
</g>
<g id="Your_Icon">
	<g>
		<path d="M83,76.106c0,0,0-40.301,0-45.675C83,25.058,74.042,23,74.042,23s-4.096,0-13.464,0c-0.035,0-0.076,0-0.111,0    C59.88,21,58,17.269,55,17.031V17c0,0-3.588,0-8.962,0c-3.736,0-5.305,4-5.915,6c-0.039,0-0.074,0-0.113,0    c-9.369,0-13.465,0-13.465,0S18,25.058,18,30.431c0,5.374,0,45.675,0,45.675V90h65V76.106z M39,42h-5v5h-5v-5h-5v-5h5v-5h5v5h5V42    z M76,41H61v-4h15V41z"/>
	</g>
</g>
</svg>