<?xml version="1.0" encoding="utf-8"?>
<!-- Generator: Adobe Illustrator 15.1.0, SVG Export Plug-In . SVG Version: 6.00 Build 0)  -->
<!DOCTYPE svg PUBLIC "-//W3C//DTD SVG 1.1//EN" "http://www.w3.org/Graphics/SVG/1.1/DTD/svg11.dtd">
<svg version="1.1" id="Layer_1" xmlns="http://www.w3.org/2000/svg" xmlns:xlink="http://www.w3.org/1999/xlink" x="0px" y="0px"
	 width="100px" height="94.736px" viewBox="0 0 100 94.736" enable-background="new 0 0 100 94.736" xml:space="preserve">
<polygon points="50,0 10.526,26.316 89.473,26.316 "/>
<path d="M98.682,89.474l-9.209-15.789V36.842c0-2.916-2.348-5.263-5.263-5.263H15.789c-2.916,0-5.263,2.348-5.263,5.263v36.843
	l-9.21,15.789C0.535,90.811,0,91.35,0,92.104c0,2.633,3.324,2.633,5.263,2.633h89.472c1.87,0,5.265,0,5.265-2.633
	C100,91.335,99.543,90.946,98.682,89.474z M31.579,78.947H21.053V68.42V47.368c0-2.916,2.347-5.263,5.263-5.263
	s4.784,2.386,5.263,5.263V78.947z M55.262,68.42v10.527H44.736V68.42V47.368c0-2.916,2.348-5.264,5.263-5.264v0.001
	c2.916,0,5.31,2.347,5.263,5.263V68.42z M78.946,78.947H68.421V68.42V47.368c0-2.916,2.346-5.263,5.262-5.263
	s5.263,2.347,5.263,5.263V78.947z"/>
</svg>
