<svg xmlns="http://www.w3.org/2000/svg" xmlns:xlink="http://www.w3.org/1999/xlink" version="1.1" id="Layer_1" x="0px" y="0px" width="100px" height="100px" viewBox="0 0 100 100" enable-background="new 0 0 100 100" xml:space="preserve">
<g>
	<path d="M36.727,45.813l-4.872,13.922l6.94-2.796l13.349-17.337l19.987-8.053c0.906-0.364,1.562-1.036,1.962-1.975   c0.411-0.95,0.425-1.891,0.063-2.788l-0.067-0.168c-0.366-0.906-1.01-1.529-1.944-1.882c-0.918-0.346-1.842-0.34-2.747,0.024   l-19.989,8.053l-35.592-8.616l-6.939,2.795l27.114,12.031l-15.083,6.076L4.775,41.693L0.039,43.6l17.489,10.092L36.727,45.813z"/>
	<rect x="0.039" y="74.007" width="99.792" height="2.644"/>
	<polygon points="78.188,63.242 78.188,53.222 65.479,53.222 65.479,63.242 65.479,72.395 99.831,72.395 99.831,63.242  "/>
	<polygon points="72.684,38.167 70.983,38.167 70.983,42.795 65.479,42.795 62.688,45.736 65.479,51.559 78.188,51.559    80.979,45.736 78.188,42.795 72.684,42.795  "/>
</g>
</svg>