<svg xmlns="http://www.w3.org/2000/svg" xmlns:xlink="http://www.w3.org/1999/xlink" version="1.1" id="Layer_1" x="0px" y="0px" width="100px" height="100px" viewBox="0 0 100 100" enable-background="new 0 0 100 100" xml:space="preserve">
<path fill-rule="evenodd" clip-rule="evenodd" d="M9.373,42.254c6.703-2.825,12.897-2.457,18.63,1.507  c4.382,3.028,8.545,6.372,12.919,9.411c17.952,12.478,42.868,1.54,49.007-15c0.339-0.918,0.878-1.763,1.594-3.175  c3.76,5.103,3.482,10.698,3.467,15.913c-0.049,17.397-18.07,32.465-32.125,33.259c-11.259,0.633-20.461-4.03-27.013-13.375  c-1.566-2.233-2.732-4.744-4.125-7.101C26.311,54.523,21.581,44.633,9.373,42.254z"/>
<path fill-rule="evenodd" clip-rule="evenodd" d="M8.316,31.901c2.826-0.988,5.681-2.883,8.47-2.791  c7.856,0.264,15.835,0.633,23.49,2.262c13.333,2.835,27.99-5.187,29.888-17.437c0.467-3.019,2.558-2.614,4.594-1.58  c9.465,4.81,12.74,18.589,6.349,27.327c-7.137,9.759-23.227,17.013-37.086,6.968c-3.5-2.535-6.887-5.226-10.41-7.727  c-6.712-4.765-13.955-7.44-22.338-5.355c-0.759,0.189-1.606,0.026-2.411,0.026C8.68,33.031,8.499,32.465,8.316,31.901z"/>
<path fill-rule="evenodd" clip-rule="evenodd" d="M64.589,92.636c-1.028,0.438-2.018,1.039-3.088,1.29  c-27.223,6.38-51.36-10.228-55.992-34.798c-0.518-2.748-1.415-5.993,1.961-7.679c3.324-1.661,6.459-0.428,8.503,2.264  c3.731,4.911,7.573,9.864,10.419,15.296c5.924,11.308,14.614,18.81,27.098,21.581c3.55,0.789,7.278,0.781,10.926,1.137  C64.473,92.031,64.53,92.333,64.589,92.636z"/>
<path fill-rule="evenodd" clip-rule="evenodd" d="M16.034,21.368c1.144-1.949,1.549-3.202,2.39-3.988  C29.198,7.317,41.892,2.877,56.522,5.394c7.33,1.262,8.763,5.078,4.858,11.472c-4.16,6.807-10.758,8.332-18.065,7.417  c-5.56-0.696-11.03-2.117-16.589-2.84C23.548,21.029,20.271,21.368,16.034,21.368z"/>
</svg>